<?xml version="1.0" encoding="UTF-8" standalone="no"?>
<!-- Created with Inkscape (http://www.inkscape.org/) -->

<svg
   width="210mm"
   height="297mm"
   viewBox="0 0 210 297"
   version="1.1"
   id="svg1"
   inkscape:version="1.4 (86a8ad7, 2024-10-11)"
   xml:space="preserve"
   sodipodi:docname="spurt.svg"
   xmlns:inkscape="http://www.inkscape.org/namespaces/inkscape"
   xmlns:sodipodi="http://sodipodi.sourceforge.net/DTD/sodipodi-0.dtd"
   xmlns:xlink="http://www.w3.org/1999/xlink"
   xmlns="http://www.w3.org/2000/svg"
   xmlns:svg="http://www.w3.org/2000/svg"
   xmlns:rdf="http://www.w3.org/1999/02/22-rdf-syntax-ns#"
   xmlns:cc="http://creativecommons.org/ns#"><sodipodi:namedview
     id="namedview1"
     pagecolor="#ffffff"
     bordercolor="#000000"
     borderopacity="0.25"
     inkscape:showpageshadow="2"
     inkscape:pageopacity="0.0"
     inkscape:pagecheckerboard="0"
     inkscape:deskcolor="#d1d1d1"
     inkscape:document-units="mm"
     inkscape:zoom="1.9729351"
     inkscape:cx="128.48877"
     inkscape:cy="223.27141"
     inkscape:window-width="1920"
     inkscape:window-height="1001"
     inkscape:window-x="-9"
     inkscape:window-y="-9"
     inkscape:window-maximized="1"
     inkscape:current-layer="layer2"><inkscape:page
       x="0"
       y="0"
       width="210"
       height="297"
       id="page18"
       margin="0"
       bleed="0" /></sodipodi:namedview><defs
     id="defs1"><linearGradient
       id="swatch12"
       inkscape:swatch="solid"><stop
         style="stop-color:#88161c;stop-opacity:1;"
         offset="0"
         id="stop12" /></linearGradient><linearGradient
       id="swatch11"
       inkscape:swatch="solid"><stop
         style="stop-color:#dc232e;stop-opacity:1;"
         offset="0"
         id="stop11" /></linearGradient><linearGradient
       id="swatch9"
       inkscape:swatch="solid"
       gradientTransform="matrix(0.16574473,0,0,0.16574473,24.239665,36.69199)"><stop
         style="stop-color:#ec58a3;stop-opacity:1;"
         offset="0"
         id="stop9" /></linearGradient><linearGradient
       id="swatch7"
       inkscape:swatch="solid"
       gradientTransform="translate(-0.33526614)"><stop
         style="stop-color:#a1125b;stop-opacity:1;"
         offset="0"
         id="stop7" /></linearGradient><linearGradient
       inkscape:collect="always"
       xlink:href="#swatch7"
       id="linearGradient7"
       x1="46.858553"
       y1="56.644519"
       x2="57.969389"
       y2="56.644519"
       gradientUnits="userSpaceOnUse" /><linearGradient
       inkscape:collect="always"
       xlink:href="#swatch7"
       id="linearGradient8"
       x1="178.88711"
       y1="239.43818"
       x2="217.52079"
       y2="239.43818"
       gradientUnits="userSpaceOnUse" /><linearGradient
       inkscape:collect="always"
       xlink:href="#swatch9"
       id="linearGradient9"
       x1="178.88711"
       y1="239.43818"
       x2="217.52079"
       y2="239.43818"
       gradientUnits="userSpaceOnUse" /><linearGradient
       inkscape:collect="always"
       xlink:href="#swatch9"
       id="linearGradient10"
       x1="46.858553"
       y1="56.644519"
       x2="57.969389"
       y2="56.644519"
       gradientUnits="userSpaceOnUse" /><linearGradient
       inkscape:collect="always"
       xlink:href="#swatch11"
       id="linearGradient11"
       x1="176.53887"
       y1="232.4663"
       x2="209.32731"
       y2="232.4663"
       gradientUnits="userSpaceOnUse" /><linearGradient
       inkscape:collect="always"
       xlink:href="#swatch12"
       id="linearGradient12"
       x1="176.53887"
       y1="232.4663"
       x2="209.32731"
       y2="232.4663"
       gradientUnits="userSpaceOnUse" /><linearGradient
       inkscape:collect="always"
       xlink:href="#swatch9"
       id="linearGradient19"
       gradientUnits="userSpaceOnUse"
       x1="178.88711"
       y1="239.43818"
       x2="217.52079"
       y2="239.43818" /><linearGradient
       inkscape:collect="always"
       xlink:href="#swatch7"
       id="linearGradient20"
       gradientUnits="userSpaceOnUse"
       x1="178.88711"
       y1="239.43818"
       x2="217.52079"
       y2="239.43818" /><linearGradient
       inkscape:collect="always"
       xlink:href="#swatch9"
       id="linearGradient21"
       gradientUnits="userSpaceOnUse"
       x1="46.858553"
       y1="56.644519"
       x2="57.969389"
       y2="56.644519" /><linearGradient
       inkscape:collect="always"
       xlink:href="#swatch7"
       id="linearGradient22"
       gradientUnits="userSpaceOnUse"
       x1="46.858553"
       y1="56.644519"
       x2="57.969389"
       y2="56.644519" /><linearGradient
       inkscape:collect="always"
       xlink:href="#swatch11"
       id="linearGradient23"
       gradientUnits="userSpaceOnUse"
       x1="176.53887"
       y1="232.4663"
       x2="209.32731"
       y2="232.4663" /><linearGradient
       inkscape:collect="always"
       xlink:href="#swatch12"
       id="linearGradient24"
       gradientUnits="userSpaceOnUse"
       x1="176.53887"
       y1="232.4663"
       x2="209.32731"
       y2="232.4663" /><linearGradient
       inkscape:collect="always"
       xlink:href="#swatch9"
       id="linearGradient30"
       gradientUnits="userSpaceOnUse"
       x1="178.88711"
       y1="239.43818"
       x2="217.52079"
       y2="239.43818" /><linearGradient
       inkscape:collect="always"
       xlink:href="#swatch7"
       id="linearGradient31"
       gradientUnits="userSpaceOnUse"
       x1="178.88711"
       y1="239.43818"
       x2="217.52079"
       y2="239.43818" /><linearGradient
       inkscape:collect="always"
       xlink:href="#swatch9"
       id="linearGradient32"
       gradientUnits="userSpaceOnUse"
       x1="46.858553"
       y1="56.644519"
       x2="57.969389"
       y2="56.644519" /><linearGradient
       inkscape:collect="always"
       xlink:href="#swatch7"
       id="linearGradient33"
       gradientUnits="userSpaceOnUse"
       x1="46.858553"
       y1="56.644519"
       x2="57.969389"
       y2="56.644519" /><linearGradient
       inkscape:collect="always"
       xlink:href="#swatch11"
       id="linearGradient34"
       gradientUnits="userSpaceOnUse"
       x1="176.53887"
       y1="232.4663"
       x2="209.32731"
       y2="232.4663" /><linearGradient
       inkscape:collect="always"
       xlink:href="#swatch12"
       id="linearGradient35"
       gradientUnits="userSpaceOnUse"
       x1="176.53887"
       y1="232.4663"
       x2="209.32731"
       y2="232.4663" /></defs><g
     inkscape:label="Layer 1"
     inkscape:groupmode="layer"
     id="layer1" /><g
     inkscape:groupmode="layer"
     id="layer2"
     inkscape:label="Assets"><g
       id="g12"
       transform="matrix(2.3354752,0,0,2.3354752,-98.69604,-108.14377)"
       inkscape:export-filename="spurt_logo.svg"
       inkscape:export-xdpi="96"
       inkscape:export-ydpi="96"><g
         id="g13"
         transform="matrix(1.0557282,0,0,1.0557282,-2.0824686,-2.4575833)"><text
           xml:space="preserve"
           style="font-style:normal;font-variant:normal;font-weight:normal;font-stretch:normal;font-size:10.0111px;line-height:1.1;font-family:Galindo;-inkscape-font-specification:Galindo;text-align:start;text-decoration-color:#000000;letter-spacing:0.179845px;word-spacing:0.0204772px;writing-mode:lr-tb;direction:ltr;text-anchor:start;fill:url(#swatch9);fill-opacity:1;stroke:#000000;stroke-width:1.809;stroke-linecap:round;stroke-dasharray:none;stroke-opacity:1;paint-order:stroke markers fill"
           x="59.720215"
           y="62.883408"
           id="text12"><tspan
             sodipodi:role="line"
             id="tspan12"
             style="letter-spacing:0.179845px;fill:url(#swatch9);fill-opacity:1;stroke:#000000;stroke-width:1.809;stroke-dasharray:none;stroke-opacity:1;paint-order:stroke markers fill"
             x="59.720215"
             y="62.883408">Spurt</tspan></text><text
           xml:space="preserve"
           style="font-style:normal;font-variant:normal;font-weight:normal;font-stretch:normal;font-size:10.0111px;line-height:1.1;font-family:Galindo;-inkscape-font-specification:Galindo;text-align:start;text-decoration-color:#000000;letter-spacing:0.179845px;word-spacing:0.0204772px;writing-mode:lr-tb;direction:ltr;text-anchor:start;fill:url(#swatch9);fill-opacity:1;stroke:url(#swatch7);stroke-width:0.809;stroke-linecap:round;stroke-dasharray:none;stroke-opacity:1;paint-order:stroke markers fill"
           x="59.720215"
           y="62.883408"
           id="text1"><tspan
             sodipodi:role="line"
             id="tspan1"
             style="letter-spacing:0.179845px;fill:url(#swatch9);fill-opacity:1;stroke:url(#swatch7);stroke-width:0.809;stroke-dasharray:none;stroke-opacity:1;paint-order:stroke markers fill"
             x="59.720215"
             y="62.883408">Spurt</tspan></text></g><g
         id="g7"
         transform="matrix(0.86394549,0,0,0.86394549,8.035752,8.7687575)"><path
           style="fill:url(#linearGradient9);stroke:url(#linearGradient8);stroke-width:0.967559;stroke-linecap:round;stroke-dasharray:none;stroke-opacity:1;paint-order:markers fill stroke"
           d="m 193.05493,251.15083 c -2.75779,-0.58513 -5.42848,-2.40006 -7.65324,-5.20095 -1.59554,-2.00873 -6.25164,-9.6867 -6.01671,-9.92164 0.31628,-0.31628 4.45237,1.64229 8.25274,3.90794 5.79376,3.45404 5.38964,3.34733 14.21889,3.75451 4.1119,0.18963 7.87271,0.46215 8.35737,0.6056 1.45356,0.43024 2.0572,0.0138 1.62239,-1.11931 -0.19336,-0.50387 -1.3974,-1.15179 -2.1404,-1.15179 -0.66559,0 -0.63205,-0.20566 0.55799,-3.4213 0.82535,-2.2302 0.84412,-2.37036 0.84463,-6.31008 l 5.2e-4,-4.02922 2.21913,2.36069 c 1.22052,1.29838 2.44819,2.83387 2.72816,3.4122 0.74395,1.5368 1.08141,3.74959 0.9691,6.35461 -0.24138,5.59841 -3.13722,7.76957 -13.51159,10.13031 -3.29181,0.74907 -8.42525,1.05781 -10.44898,0.62843 z"
           id="path2"
           transform="scale(0.26458333)" /><path
           style="fill:url(#linearGradient10);stroke:url(#linearGradient7);stroke-width:0.256;stroke-linecap:round;stroke-dasharray:none;stroke-opacity:1;paint-order:markers fill stroke"
           d="m 47.221329,60.73346 c 0.378267,-0.714711 0.447879,-1.007062 0.738436,-3.101213 0.37568,-2.707682 0.565415,-3.386785 1.124043,-4.023193 0.504981,-0.575294 1.470702,-0.961541 2.192115,-0.876752 0.459312,0.05398 1.037577,0.312272 1.333013,0.595407 0.122984,0.117862 0.431414,0.491099 0.685403,0.829416 0.481727,0.641668 0.675479,0.779471 0.850236,0.604713 0.169805,-0.169804 0.116052,-0.417023 -0.212537,-0.977508 -0.310642,-0.52987 -0.312859,-0.537887 -0.205975,-0.74458 0.05942,-0.114916 0.230179,-0.331073 0.379455,-0.480348 0.806775,-0.806776 2.015492,-0.738817 2.893679,0.162689 0.652991,0.670333 0.889203,1.390717 0.83499,2.546517 -0.02729,0.581798 -0.05712,0.707266 -0.271047,1.139904 -0.318651,0.644428 -1.862143,2.589779 -1.979631,2.472294 -0.02357,-0.02358 0.0073,-0.427099 0.05412,-0.780834 0.07791,-0.588615 0.0624,-1.265859 -0.03479,-1.519126 -0.02305,-0.06007 0.05824,-0.217929 0.198961,-0.386355 0.252338,-0.30203 0.303334,-0.519425 0.136835,-0.583316 -0.135478,-0.05199 -0.29254,0.05856 -1.111629,0.782449 -0.382929,0.338418 -0.847563,0.695204 -1.032526,0.792859 -0.32149,0.169735 -0.382058,0.177607 -1.375621,0.178757 -0.921367,0.0011 -1.075225,0.01765 -1.35563,0.146127 -0.440682,0.201909 -0.884978,0.638403 -1.771393,1.740281 -0.419828,0.521878 -0.946669,1.118616 -1.17076,1.326084 -0.365501,0.338389 -0.954689,0.708917 -1.127274,0.708917 -0.03589,0 0.0665,-0.248934 0.227526,-0.553189 z"
           id="path3"
           sodipodi:nodetypes="ssssssssssssssssssssssssss" /><path
           style="fill:url(#linearGradient11);fill-opacity:1;stroke:url(#linearGradient12);stroke-width:0.967559;stroke-linecap:round;stroke-dasharray:none;paint-order:markers fill stroke"
           d="m 194.12701,241.29468 c -1.7271,-0.62533 -3.5731,-1.58432 -5.70734,-2.96496 -2.25353,-1.4578 -4.72076,-2.58442 -8.03871,-3.67074 l -2.59515,-0.84968 2.20207,-1.14003 c 1.75002,-0.90601 2.68353,-1.62464 4.5474,-3.50067 l 2.34533,-2.36062 1.84919,0.40752 c 5.33359,1.17542 8.33041,2.56896 12.37602,5.75493 1.40554,1.10687 2.60873,1.95929 2.67376,1.89425 0.065,-0.065 -0.89167,-1.075 -2.12601,-2.24438 -3.44174,-3.26063 -8.36772,-5.89709 -12.27836,-6.57158 -0.94086,-0.16228 -1.93465,-0.25478 -1.93465,-0.31506 0,-0.0603 0.40949,-0.48231 0.6362,-0.82831 0.33918,-0.51766 0.47891,-0.57371 0.78891,-0.31644 0.91745,0.76142 3.69715,0.19496 5.3454,-1.0893 0.57246,-0.44605 0.61983,-0.44493 1.51682,0.0358 0.50925,0.27294 1.28623,0.49626 1.72662,0.49626 0.44038,0 1.52548,0.22399 2.41133,0.49776 4.14017,1.27953 7.4943,4.72609 8.7053,8.94518 0.34777,1.21164 0.36679,1.62107 0.11183,2.40758 -0.47126,1.45377 -1.6316,4.07225 -2.38157,4.96355 0,0 -0.52851,0.79641 -1.00519,0.81511 -1.08062,0.0424 -4.91934,0.10188 -4.91934,0.10188 -4.15716,-0.008 -5.19265,-0.0852 -6.24986,-0.46794 z"
           id="path4"
           transform="scale(0.26458333)"
           sodipodi:nodetypes="csscsscssssssssssssssssccc" /><path
           style="fill:#ffffff;fill-opacity:1;stroke:none;stroke-width:0.48419;stroke-linecap:round;stroke-dasharray:none;paint-order:stroke markers fill"
           d="m 189.78703,223.39417 c -0.15681,-0.063 -0.28511,-0.16718 -0.28511,-0.23145 0,-0.44142 3.30236,-4.0729 3.70377,-4.0729 0.30553,0 0.66642,1.07158 0.66148,1.96408 -0.005,0.87047 -0.25225,1.43506 -0.79978,1.82494 -0.72535,0.51649 -2.5603,0.80476 -3.28036,0.51533 z"
           id="path5"
           transform="scale(0.26458333)" /><path
           style="fill:#ffffff;fill-opacity:1;stroke:none;stroke-width:0.48419;stroke-linecap:round;stroke-dasharray:none;paint-order:stroke markers fill"
           d="m 196.47124,221.98489 c -0.60878,-0.40825 -1.19425,-1.59744 -1.19969,-2.43676 -0.004,-0.62413 0.003,-0.6351 0.44388,-0.72843 0.24639,-0.0521 2.02836,-0.11245 3.95994,-0.13407 l 3.51196,-0.0393 -1.1e-4,0.54578 c -1.8e-4,0.96729 -0.24244,1.63222 -0.76751,2.10658 -0.71594,0.64681 -1.53101,0.85187 -3.66761,0.92271 -1.76849,0.0586 -1.85399,0.0498 -2.28086,-0.2365 z"
           id="path6"
           transform="scale(0.26458333)" /><path
           style="fill:#ffffff;fill-opacity:1;stroke:none;stroke-width:0.48419;stroke-linecap:round;stroke-dasharray:none;paint-order:stroke markers fill"
           d="m 204.32809,220.48422 c -0.24495,-0.24495 -0.27512,-0.38544 -0.23113,-1.07628 0.0396,-0.62207 0.12598,-0.89339 0.39786,-1.24984 0.41425,-0.54312 3.0445,-2.32729 3.59248,-2.43689 0.46828,-0.0937 0.53699,0.0386 0.63797,1.22841 0.1059,1.24789 -0.12515,2.04258 -0.74919,2.57673 -0.59739,0.51134 -1.84119,1.03728 -2.7328,1.15556 -0.55001,0.073 -0.67059,0.0469 -0.91519,-0.19769 z"
           id="path7"
           transform="scale(0.26458333)" /><path
           style="fill:#000000;stroke-width:0.401198"
           d="m 58.521736,68.004125 c 0.668493,-0.323829 1.297776,-1.401573 1.297776,-2.222636 0,-0.197 -0.04776,-0.35818 -0.106143,-0.35818 -0.05838,0 -0.106626,0.107478 -0.107194,0.238838 -0.002,0.477196 -0.492864,1.302543 -1.071508,1.801919 -0.383268,0.330763 -0.537663,0.52974 -0.466634,0.601369 0.07129,0.07189 0.220282,0.05177 0.453703,-0.06131 z m -1.242461,-0.602849 c 1.022192,-0.575138 1.546112,-1.129905 1.791994,-1.897497 0.213329,-0.665962 0.07726,-0.8364 -0.191354,-0.239696 -0.333468,0.740753 -0.787357,1.17423 -1.727192,1.649515 -0.685591,0.346714 -0.942321,0.564839 -0.942321,0.800624 0,0.138277 0.556521,-0.02468 1.068873,-0.312946 z m -3.457259,-0.338674 c 3.103036,-0.57597 4.095074,-1.239732 4.411551,-2.951723 0.13554,-0.733226 -0.02491,-1.812552 -0.37104,-2.495573 -0.314435,-0.620505 -1.132662,-1.394077 -1.869478,-1.76745 l -0.563993,-0.285798 0.887824,-0.811175 c 1.663938,-1.520288 2.33385,-2.802562 2.188868,-4.189676 -0.226858,-2.170444 -2.23404,-3.754084 -3.934847,-3.10454 -0.449234,0.171564 -0.854733,0.539306 -1.240468,1.124958 -0.164119,0.249186 -0.183561,0.253501 -0.373436,0.08293 -0.413165,-0.371138 -1.135015,-0.611497 -1.841813,-0.613278 -0.893962,-0.0023 -1.375556,0.137892 -1.934565,0.562959 -0.970265,0.73779 -1.318985,1.745219 -1.622937,4.688559 -0.09044,0.875742 -0.21628,1.854978 -0.279656,2.176084 -0.15149,0.767566 -0.544494,1.529218 -0.939892,1.82155 -0.174993,0.129384 -0.318167,0.263888 -0.318167,0.298914 0,0.03502 0.226896,0.305933 0.504214,0.602015 0.277318,0.296083 0.837774,1.122463 1.24546,1.836403 0.903936,1.582975 1.665371,2.429922 2.549414,2.835733 0.530082,0.243328 0.806031,0.29692 1.64533,0.319542 0.565187,0.01518 1.381686,-0.04209 1.857631,-0.130452 z m -3.486115,-0.830274 c -0.703263,-0.344077 -1.397445,-1.081335 -2.003333,-2.127662 -0.239274,-0.41321 -0.568494,-0.964657 -0.731601,-1.225441 -0.163103,-0.260783 -0.282904,-0.487802 -0.266218,-0.504487 0.101054,-0.101054 1.425334,0.489653 2.204043,0.983127 1.64068,1.039709 1.689162,1.053516 3.799375,1.082041 1.018306,0.01385 2.013883,0.07863 2.212397,0.14415 0.272039,0.08978 0.391203,0.08829 0.483844,-0.006 0.152675,-0.155444 -0.265937,-0.534674 -0.590177,-0.534674 -0.160701,0 -0.193087,-0.04488 -0.134039,-0.185764 0.475504,-1.134392 0.600727,-1.687982 0.556624,-2.460712 -0.02523,-0.441875 -0.08439,-0.898946 -0.13147,-1.015712 -0.145133,-0.359909 1.220801,1.03477 1.455482,1.486106 0.140245,0.269724 0.239102,0.705142 0.271005,1.193713 0.114718,1.756634 -0.465035,2.422011 -2.631394,3.020072 -2.14157,0.59122 -3.501749,0.636998 -4.494544,0.151273 z m 0.776715,-2.435276 C 50.790102,63.664365 50.312428,63.409305 50.051115,63.23027 49.366654,62.761319 48.737211,62.458349 47.775284,62.134846 l -0.845365,-0.284301 0.614933,-0.281527 c 0.401856,-0.183974 0.831119,-0.508014 1.238838,-0.935165 l 0.623903,-0.653641 0.663204,0.130485 c 1.313563,0.258426 2.182887,0.677216 3.273546,1.576997 l 0.583827,0.481651 -0.583827,-0.610439 c -0.700255,-0.732175 -2.381963,-1.62065 -3.265678,-1.725312 l -0.542298,-0.06423 0.168285,-0.256839 c 0.117672,-0.179585 0.201855,-0.223269 0.279888,-0.145234 0.214737,0.214739 0.884141,0.126681 1.226434,-0.16135 0.303632,-0.255489 0.339612,-0.262277 0.562512,-0.106143 0.130968,0.09174 0.420168,0.166806 0.642648,0.166806 0.44736,0 1.243057,0.362788 1.772145,0.807985 0.446168,0.375428 0.835087,0.99892 1.02772,1.647602 0.153542,0.517006 0.152758,0.521228 -0.248457,1.359782 -0.269666,0.563602 -0.472527,0.856231 -0.614773,0.886824 -0.11677,0.02511 -0.76163,0.05104 -1.433032,0.05759 -1.044174,0.01018 -1.305534,-0.02296 -1.807121,-0.229327 z m -3.977229,-3.000115 c 0.420779,-0.698772 0.500978,-1.035905 0.795334,-3.343324 0.229758,-1.801062 0.440607,-2.800106 0.694636,-3.291347 0.792298,-1.532129 2.838484,-1.97108 4.013615,-0.861004 0.166689,0.157462 0.490894,0.560946 0.720471,0.896646 0.435482,0.636792 0.648866,0.744175 0.824955,0.41515 0.08164,-0.152524 0.02445,-0.314084 -0.26164,-0.738863 -0.201367,-0.299009 -0.366118,-0.584023 -0.366118,-0.633368 0,-0.04933 0.121359,-0.254194 0.269671,-0.455227 1.019271,-1.381545 2.921387,-1.010535 3.784199,0.738114 0.195822,0.396861 0.241397,0.66754 0.243111,1.443783 0.002,0.843459 -0.03422,1.029381 -0.308208,1.587381 -0.27345,0.556929 -1.930353,2.470206 -2.04228,2.358278 -0.02094,-0.02095 0.01769,-0.397073 0.08592,-0.835813 0.08811,-0.566694 0.09218,-0.923156 0.01402,-1.230884 -0.0999,-0.393588 -0.08687,-0.454849 0.142514,-0.670356 0.138861,-0.130451 0.252471,-0.297689 0.252471,-0.371641 0,-0.355452 -0.295483,-0.202537 -1.09871,0.568593 -1.011103,0.970701 -1.457062,1.150472 -2.560775,1.032274 -1.266354,-0.135607 -1.720185,0.159664 -3.194208,2.078233 -0.732555,0.953485 -1.406578,1.565711 -1.974206,1.793201 -0.405357,0.162452 -0.4071,0.138427 -0.03482,-0.479826 z m 2.980051,-1.728602 c -0.0313,-0.05066 0.188392,-0.34796 0.48822,-0.660677 0.490263,-0.511334 0.553388,-0.54748 0.627024,-0.359035 0.158297,0.405092 0.103707,0.776483 -0.13911,0.946569 -0.253314,0.177426 -0.882541,0.224575 -0.976129,0.07314 z m 1.69498,-0.468804 c -0.08737,-0.133355 -0.172072,-0.355994 -0.188211,-0.49476 -0.02917,-0.25061 -0.02202,-0.25237 1.058701,-0.261759 l 1.088049,-0.0095 -0.0016,0.265374 c -0.0032,0.521692 -0.3476,0.716679 -1.296277,0.73393 -0.411171,0.0075 -0.530451,-0.03465 -0.660632,-0.233333 z m 2.170826,-0.53115 c 0,-0.303961 0.07421,-0.398987 0.575062,-0.736298 0.465589,-0.313569 0.586831,-0.356618 0.636901,-0.22614 0.08194,0.213509 0.07853,0.613693 -0.0071,0.836888 -0.07863,0.204927 -0.611128,0.464226 -0.966004,0.470398 -0.200096,0.0035 -0.238837,-0.05245 -0.238837,-0.344848 z m -6.955155,-3.57483 c 0.03598,-0.05822 0.155861,-0.368697 0.266377,-0.689912 0.363232,-1.055754 1.094735,-1.89482 2.048383,-2.349581 0.394438,-0.188096 0.476063,-0.298034 0.301413,-0.405975 -0.188567,-0.116537 -1.38158,0.594381 -1.865357,1.111577 -0.540052,0.57736 -1.013886,1.51601 -1.013886,2.008472 0,0.32243 0.150139,0.50815 0.26307,0.325419 z M 46.47774,53.996665 c 0.04014,-0.04014 0.07297,-0.134873 0.07297,-0.210529 0,-0.43628 0.497499,-1.379806 1.031872,-1.956994 0.324098,-0.350063 0.558287,-0.667463 0.520418,-0.705331 -0.145067,-0.145066 -0.814947,0.30112 -1.218444,0.811583 -0.443847,0.561508 -0.797297,1.43466 -0.739616,1.827119 0.03548,0.241509 0.205688,0.361257 0.332792,0.234152 z"
           id="path1" /></g></g><g
       id="g19"
       transform="matrix(0.42394187,0,0,0.42394187,-1.2249742,47.688666)"><path
         style="fill:url(#linearGradient19);stroke:url(#linearGradient20);stroke-width:0.967559;stroke-linecap:round;stroke-dasharray:none;stroke-opacity:1;paint-order:markers fill stroke"
         d="m 193.05493,251.15083 c -2.75779,-0.58513 -5.42848,-2.40006 -7.65324,-5.20095 -1.59554,-2.00873 -6.25164,-9.6867 -6.01671,-9.92164 0.31628,-0.31628 4.45237,1.64229 8.25274,3.90794 5.79376,3.45404 5.38964,3.34733 14.21889,3.75451 4.1119,0.18963 7.87271,0.46215 8.35737,0.6056 1.45356,0.43024 2.0572,0.0138 1.62239,-1.11931 -0.19336,-0.50387 -1.3974,-1.15179 -2.1404,-1.15179 -0.66559,0 -0.63205,-0.20566 0.55799,-3.4213 0.82535,-2.2302 0.84412,-2.37036 0.84463,-6.31008 l 5.2e-4,-4.02922 2.21913,2.36069 c 1.22052,1.29838 2.44819,2.83387 2.72816,3.4122 0.74395,1.5368 1.08141,3.74959 0.9691,6.35461 -0.24138,5.59841 -3.13722,7.76957 -13.51159,10.13031 -3.29181,0.74907 -8.42525,1.05781 -10.44898,0.62843 z"
         id="path13"
         transform="scale(0.26458333)" /><path
         style="fill:url(#linearGradient21);stroke:url(#linearGradient22);stroke-width:0.256;stroke-linecap:round;stroke-dasharray:none;stroke-opacity:1;paint-order:markers fill stroke"
         d="m 47.221329,60.73346 c 0.378267,-0.714711 0.447879,-1.007062 0.738436,-3.101213 0.37568,-2.707682 0.565415,-3.386785 1.124043,-4.023193 0.504981,-0.575294 1.470702,-0.961541 2.192115,-0.876752 0.459312,0.05398 1.037577,0.312272 1.333013,0.595407 0.122984,0.117862 0.431414,0.491099 0.685403,0.829416 0.481727,0.641668 0.675479,0.779471 0.850236,0.604713 0.169805,-0.169804 0.116052,-0.417023 -0.212537,-0.977508 -0.310642,-0.52987 -0.312859,-0.537887 -0.205975,-0.74458 0.05942,-0.114916 0.230179,-0.331073 0.379455,-0.480348 0.806775,-0.806776 2.015492,-0.738817 2.893679,0.162689 0.652991,0.670333 0.889203,1.390717 0.83499,2.546517 -0.02729,0.581798 -0.05712,0.707266 -0.271047,1.139904 -0.318651,0.644428 -1.862143,2.589779 -1.979631,2.472294 -0.02357,-0.02358 0.0073,-0.427099 0.05412,-0.780834 0.07791,-0.588615 0.0624,-1.265859 -0.03479,-1.519126 -0.02305,-0.06007 0.05824,-0.217929 0.198961,-0.386355 0.252338,-0.30203 0.303334,-0.519425 0.136835,-0.583316 -0.135478,-0.05199 -0.29254,0.05856 -1.111629,0.782449 -0.382929,0.338418 -0.847563,0.695204 -1.032526,0.792859 -0.32149,0.169735 -0.382058,0.177607 -1.375621,0.178757 -0.921367,0.0011 -1.075225,0.01765 -1.35563,0.146127 -0.440682,0.201909 -0.884978,0.638403 -1.771393,1.740281 -0.419828,0.521878 -0.946669,1.118616 -1.17076,1.326084 -0.365501,0.338389 -0.954689,0.708917 -1.127274,0.708917 -0.03589,0 0.0665,-0.248934 0.227526,-0.553189 z"
         id="path14"
         sodipodi:nodetypes="ssssssssssssssssssssssssss" /><path
         style="fill:url(#linearGradient23);fill-opacity:1;stroke:url(#linearGradient24);stroke-width:0.967559;stroke-linecap:round;stroke-dasharray:none;paint-order:markers fill stroke"
         d="m 194.12701,241.29468 c -1.7271,-0.62533 -3.5731,-1.58432 -5.70734,-2.96496 -2.25353,-1.4578 -4.72076,-2.58442 -8.03871,-3.67074 l -2.59515,-0.84968 2.20207,-1.14003 c 1.75002,-0.90601 2.68353,-1.62464 4.5474,-3.50067 l 2.34533,-2.36062 1.84919,0.40752 c 5.33359,1.17542 8.33041,2.56896 12.37602,5.75493 1.40554,1.10687 2.60873,1.95929 2.67376,1.89425 0.065,-0.065 -0.89167,-1.075 -2.12601,-2.24438 -3.44174,-3.26063 -8.36772,-5.89709 -12.27836,-6.57158 -0.94086,-0.16228 -1.93465,-0.25478 -1.93465,-0.31506 0,-0.0603 0.40949,-0.48231 0.6362,-0.82831 0.33918,-0.51766 0.47891,-0.57371 0.78891,-0.31644 0.91745,0.76142 3.69715,0.19496 5.3454,-1.0893 0.57246,-0.44605 0.61983,-0.44493 1.51682,0.0358 0.50925,0.27294 1.28623,0.49626 1.72662,0.49626 0.44038,0 1.52548,0.22399 2.41133,0.49776 4.14017,1.27953 7.4943,4.72609 8.7053,8.94518 0.34777,1.21164 0.36679,1.62107 0.11183,2.40758 -0.47126,1.45377 -1.6316,4.07225 -2.38157,4.96355 0,0 -0.52851,0.79641 -1.00519,0.81511 -1.08062,0.0424 -4.91934,0.10188 -4.91934,0.10188 -4.15716,-0.008 -5.19265,-0.0852 -6.24986,-0.46794 z"
         id="path15"
         transform="scale(0.26458333)"
         sodipodi:nodetypes="csscsscssssssssssssssssccc" /><path
         style="fill:#ffffff;fill-opacity:1;stroke:none;stroke-width:0.48419;stroke-linecap:round;stroke-dasharray:none;paint-order:stroke markers fill"
         d="m 189.78703,223.39417 c -0.15681,-0.063 -0.28511,-0.16718 -0.28511,-0.23145 0,-0.44142 3.30236,-4.0729 3.70377,-4.0729 0.30553,0 0.66642,1.07158 0.66148,1.96408 -0.005,0.87047 -0.25225,1.43506 -0.79978,1.82494 -0.72535,0.51649 -2.5603,0.80476 -3.28036,0.51533 z"
         id="path16"
         transform="scale(0.26458333)" /><path
         style="fill:#ffffff;fill-opacity:1;stroke:none;stroke-width:0.48419;stroke-linecap:round;stroke-dasharray:none;paint-order:stroke markers fill"
         d="m 196.47124,221.98489 c -0.60878,-0.40825 -1.19425,-1.59744 -1.19969,-2.43676 -0.004,-0.62413 0.003,-0.6351 0.44388,-0.72843 0.24639,-0.0521 2.02836,-0.11245 3.95994,-0.13407 l 3.51196,-0.0393 -1.1e-4,0.54578 c -1.8e-4,0.96729 -0.24244,1.63222 -0.76751,2.10658 -0.71594,0.64681 -1.53101,0.85187 -3.66761,0.92271 -1.76849,0.0586 -1.85399,0.0498 -2.28086,-0.2365 z"
         id="path17"
         transform="scale(0.26458333)" /><path
         style="fill:#ffffff;fill-opacity:1;stroke:none;stroke-width:0.48419;stroke-linecap:round;stroke-dasharray:none;paint-order:stroke markers fill"
         d="m 204.32809,220.48422 c -0.24495,-0.24495 -0.27512,-0.38544 -0.23113,-1.07628 0.0396,-0.62207 0.12598,-0.89339 0.39786,-1.24984 0.41425,-0.54312 3.0445,-2.32729 3.59248,-2.43689 0.46828,-0.0937 0.53699,0.0386 0.63797,1.22841 0.1059,1.24789 -0.12515,2.04258 -0.74919,2.57673 -0.59739,0.51134 -1.84119,1.03728 -2.7328,1.15556 -0.55001,0.073 -0.67059,0.0469 -0.91519,-0.19769 z"
         id="path18"
         transform="scale(0.26458333)" /><path
         style="fill:#000000;stroke-width:0.401198"
         d="m 58.521736,68.004125 c 0.668493,-0.323829 1.297776,-1.401573 1.297776,-2.222636 0,-0.197 -0.04776,-0.35818 -0.106143,-0.35818 -0.05838,0 -0.106626,0.107478 -0.107194,0.238838 -0.002,0.477196 -0.492864,1.302543 -1.071508,1.801919 -0.383268,0.330763 -0.537663,0.52974 -0.466634,0.601369 0.07129,0.07189 0.220282,0.05177 0.453703,-0.06131 z m -1.242461,-0.602849 c 1.022192,-0.575138 1.546112,-1.129905 1.791994,-1.897497 0.213329,-0.665962 0.07726,-0.8364 -0.191354,-0.239696 -0.333468,0.740753 -0.787357,1.17423 -1.727192,1.649515 -0.685591,0.346714 -0.942321,0.564839 -0.942321,0.800624 0,0.138277 0.556521,-0.02468 1.068873,-0.312946 z m -3.457259,-0.338674 c 3.103036,-0.57597 4.095074,-1.239732 4.411551,-2.951723 0.13554,-0.733226 -0.02491,-1.812552 -0.37104,-2.495573 -0.314435,-0.620505 -1.132662,-1.394077 -1.869478,-1.76745 l -0.563993,-0.285798 0.887824,-0.811175 c 1.663938,-1.520288 2.33385,-2.802562 2.188868,-4.189676 -0.226858,-2.170444 -2.23404,-3.754084 -3.934847,-3.10454 -0.449234,0.171564 -0.854733,0.539306 -1.240468,1.124958 -0.164119,0.249186 -0.183561,0.253501 -0.373436,0.08293 -0.413165,-0.371138 -1.135015,-0.611497 -1.841813,-0.613278 -0.893962,-0.0023 -1.375556,0.137892 -1.934565,0.562959 -0.970265,0.73779 -1.318985,1.745219 -1.622937,4.688559 -0.09044,0.875742 -0.21628,1.854978 -0.279656,2.176084 -0.15149,0.767566 -0.544494,1.529218 -0.939892,1.82155 -0.174993,0.129384 -0.318167,0.263888 -0.318167,0.298914 0,0.03502 0.226896,0.305933 0.504214,0.602015 0.277318,0.296083 0.837774,1.122463 1.24546,1.836403 0.903936,1.582975 1.665371,2.429922 2.549414,2.835733 0.530082,0.243328 0.806031,0.29692 1.64533,0.319542 0.565187,0.01518 1.381686,-0.04209 1.857631,-0.130452 z m -3.486115,-0.830274 c -0.703263,-0.344077 -1.397445,-1.081335 -2.003333,-2.127662 -0.239274,-0.41321 -0.568494,-0.964657 -0.731601,-1.225441 -0.163103,-0.260783 -0.282904,-0.487802 -0.266218,-0.504487 0.101054,-0.101054 1.425334,0.489653 2.204043,0.983127 1.64068,1.039709 1.689162,1.053516 3.799375,1.082041 1.018306,0.01385 2.013883,0.07863 2.212397,0.14415 0.272039,0.08978 0.391203,0.08829 0.483844,-0.006 0.152675,-0.155444 -0.265937,-0.534674 -0.590177,-0.534674 -0.160701,0 -0.193087,-0.04488 -0.134039,-0.185764 0.475504,-1.134392 0.600727,-1.687982 0.556624,-2.460712 -0.02523,-0.441875 -0.08439,-0.898946 -0.13147,-1.015712 -0.145133,-0.359909 1.220801,1.03477 1.455482,1.486106 0.140245,0.269724 0.239102,0.705142 0.271005,1.193713 0.114718,1.756634 -0.465035,2.422011 -2.631394,3.020072 -2.14157,0.59122 -3.501749,0.636998 -4.494544,0.151273 z m 0.776715,-2.435276 C 50.790102,63.664365 50.312428,63.409305 50.051115,63.23027 49.366654,62.761319 48.737211,62.458349 47.775284,62.134846 l -0.845365,-0.284301 0.614933,-0.281527 c 0.401856,-0.183974 0.831119,-0.508014 1.238838,-0.935165 l 0.623903,-0.653641 0.663204,0.130485 c 1.313563,0.258426 2.182887,0.677216 3.273546,1.576997 l 0.583827,0.481651 -0.583827,-0.610439 c -0.700255,-0.732175 -2.381963,-1.62065 -3.265678,-1.725312 l -0.542298,-0.06423 0.168285,-0.256839 c 0.117672,-0.179585 0.201855,-0.223269 0.279888,-0.145234 0.214737,0.214739 0.884141,0.126681 1.226434,-0.16135 0.303632,-0.255489 0.339612,-0.262277 0.562512,-0.106143 0.130968,0.09174 0.420168,0.166806 0.642648,0.166806 0.44736,0 1.243057,0.362788 1.772145,0.807985 0.446168,0.375428 0.835087,0.99892 1.02772,1.647602 0.153542,0.517006 0.152758,0.521228 -0.248457,1.359782 -0.269666,0.563602 -0.472527,0.856231 -0.614773,0.886824 -0.11677,0.02511 -0.76163,0.05104 -1.433032,0.05759 -1.044174,0.01018 -1.305534,-0.02296 -1.807121,-0.229327 z m -3.977229,-3.000115 c 0.420779,-0.698772 0.500978,-1.035905 0.795334,-3.343324 0.229758,-1.801062 0.440607,-2.800106 0.694636,-3.291347 0.792298,-1.532129 2.838484,-1.97108 4.013615,-0.861004 0.166689,0.157462 0.490894,0.560946 0.720471,0.896646 0.435482,0.636792 0.648866,0.744175 0.824955,0.41515 0.08164,-0.152524 0.02445,-0.314084 -0.26164,-0.738863 -0.201367,-0.299009 -0.366118,-0.584023 -0.366118,-0.633368 0,-0.04933 0.121359,-0.254194 0.269671,-0.455227 1.019271,-1.381545 2.921387,-1.010535 3.784199,0.738114 0.195822,0.396861 0.241397,0.66754 0.243111,1.443783 0.002,0.843459 -0.03422,1.029381 -0.308208,1.587381 -0.27345,0.556929 -1.930353,2.470206 -2.04228,2.358278 -0.02094,-0.02095 0.01769,-0.397073 0.08592,-0.835813 0.08811,-0.566694 0.09218,-0.923156 0.01402,-1.230884 -0.0999,-0.393588 -0.08687,-0.454849 0.142514,-0.670356 0.138861,-0.130451 0.252471,-0.297689 0.252471,-0.371641 0,-0.355452 -0.295483,-0.202537 -1.09871,0.568593 -1.011103,0.970701 -1.457062,1.150472 -2.560775,1.032274 -1.266354,-0.135607 -1.720185,0.159664 -3.194208,2.078233 -0.732555,0.953485 -1.406578,1.565711 -1.974206,1.793201 -0.405357,0.162452 -0.4071,0.138427 -0.03482,-0.479826 z m 2.980051,-1.728602 c -0.0313,-0.05066 0.188392,-0.34796 0.48822,-0.660677 0.490263,-0.511334 0.553388,-0.54748 0.627024,-0.359035 0.158297,0.405092 0.103707,0.776483 -0.13911,0.946569 -0.253314,0.177426 -0.882541,0.224575 -0.976129,0.07314 z m 1.69498,-0.468804 c -0.08737,-0.133355 -0.172072,-0.355994 -0.188211,-0.49476 -0.02917,-0.25061 -0.02202,-0.25237 1.058701,-0.261759 l 1.088049,-0.0095 -0.0016,0.265374 c -0.0032,0.521692 -0.3476,0.716679 -1.296277,0.73393 -0.411171,0.0075 -0.530451,-0.03465 -0.660632,-0.233333 z m 2.170826,-0.53115 c 0,-0.303961 0.07421,-0.398987 0.575062,-0.736298 0.465589,-0.313569 0.586831,-0.356618 0.636901,-0.22614 0.08194,0.213509 0.07853,0.613693 -0.0071,0.836888 -0.07863,0.204927 -0.611128,0.464226 -0.966004,0.470398 -0.200096,0.0035 -0.238837,-0.05245 -0.238837,-0.344848 z m -6.955155,-3.57483 c 0.03598,-0.05822 0.155861,-0.368697 0.266377,-0.689912 0.363232,-1.055754 1.094735,-1.89482 2.048383,-2.349581 0.394438,-0.188096 0.476063,-0.298034 0.301413,-0.405975 -0.188567,-0.116537 -1.38158,0.594381 -1.865357,1.111577 -0.540052,0.57736 -1.013886,1.51601 -1.013886,2.008472 0,0.32243 0.150139,0.50815 0.26307,0.325419 z M 46.47774,53.996665 c 0.04014,-0.04014 0.07297,-0.134873 0.07297,-0.210529 0,-0.43628 0.497499,-1.379806 1.031872,-1.956994 0.324098,-0.350063 0.558287,-0.667463 0.520418,-0.705331 -0.145067,-0.145066 -0.814947,0.30112 -1.218444,0.811583 -0.443847,0.561508 -0.797297,1.43466 -0.739616,1.827119 0.03548,0.241509 0.205688,0.361257 0.332792,0.234152 z"
         id="path19" /></g><g
       id="g35"
       transform="translate(-5.6324711,-0.06705323)"
       inkscape:export-filename="spurt.svg"
       inkscape:export-xdpi="96"
       inkscape:export-ydpi="96"><rect
         style="fill:none;fill-opacity:1;stroke:none;stroke-width:0.133;stroke-linecap:round;stroke-dasharray:none;stroke-opacity:1;paint-order:markers fill stroke"
         id="rect35"
         width="14.617602"
         height="14.617602"
         x="40.298988"
         y="67.18734"
         rx="0.31785876"
         ry="0.31785876" /><g
         id="g30"
         transform="matrix(0.90891968,0,0,0.90891968,0.09631488,20.64041)"><path
           style="fill:url(#linearGradient30);stroke:url(#linearGradient31);stroke-width:0.967559;stroke-linecap:round;stroke-dasharray:none;stroke-opacity:1;paint-order:markers fill stroke"
           d="m 193.05493,251.15083 c -2.75779,-0.58513 -5.42848,-2.40006 -7.65324,-5.20095 -1.59554,-2.00873 -6.25164,-9.6867 -6.01671,-9.92164 0.31628,-0.31628 4.45237,1.64229 8.25274,3.90794 5.79376,3.45404 5.38964,3.34733 14.21889,3.75451 4.1119,0.18963 7.87271,0.46215 8.35737,0.6056 1.45356,0.43024 2.0572,0.0138 1.62239,-1.11931 -0.19336,-0.50387 -1.3974,-1.15179 -2.1404,-1.15179 -0.66559,0 -0.63205,-0.20566 0.55799,-3.4213 0.82535,-2.2302 0.84412,-2.37036 0.84463,-6.31008 l 5.2e-4,-4.02922 2.21913,2.36069 c 1.22052,1.29838 2.44819,2.83387 2.72816,3.4122 0.74395,1.5368 1.08141,3.74959 0.9691,6.35461 -0.24138,5.59841 -3.13722,7.76957 -13.51159,10.13031 -3.29181,0.74907 -8.42525,1.05781 -10.44898,0.62843 z"
           id="path24"
           transform="scale(0.26458333)" /><path
           style="fill:url(#linearGradient32);stroke:url(#linearGradient33);stroke-width:0.256;stroke-linecap:round;stroke-dasharray:none;stroke-opacity:1;paint-order:markers fill stroke"
           d="m 47.221329,60.73346 c 0.378267,-0.714711 0.447879,-1.007062 0.738436,-3.101213 0.37568,-2.707682 0.565415,-3.386785 1.124043,-4.023193 0.504981,-0.575294 1.470702,-0.961541 2.192115,-0.876752 0.459312,0.05398 1.037577,0.312272 1.333013,0.595407 0.122984,0.117862 0.431414,0.491099 0.685403,0.829416 0.481727,0.641668 0.675479,0.779471 0.850236,0.604713 0.169805,-0.169804 0.116052,-0.417023 -0.212537,-0.977508 -0.310642,-0.52987 -0.312859,-0.537887 -0.205975,-0.74458 0.05942,-0.114916 0.230179,-0.331073 0.379455,-0.480348 0.806775,-0.806776 2.015492,-0.738817 2.893679,0.162689 0.652991,0.670333 0.889203,1.390717 0.83499,2.546517 -0.02729,0.581798 -0.05712,0.707266 -0.271047,1.139904 -0.318651,0.644428 -1.862143,2.589779 -1.979631,2.472294 -0.02357,-0.02358 0.0073,-0.427099 0.05412,-0.780834 0.07791,-0.588615 0.0624,-1.265859 -0.03479,-1.519126 -0.02305,-0.06007 0.05824,-0.217929 0.198961,-0.386355 0.252338,-0.30203 0.303334,-0.519425 0.136835,-0.583316 -0.135478,-0.05199 -0.29254,0.05856 -1.111629,0.782449 -0.382929,0.338418 -0.847563,0.695204 -1.032526,0.792859 -0.32149,0.169735 -0.382058,0.177607 -1.375621,0.178757 -0.921367,0.0011 -1.075225,0.01765 -1.35563,0.146127 -0.440682,0.201909 -0.884978,0.638403 -1.771393,1.740281 -0.419828,0.521878 -0.946669,1.118616 -1.17076,1.326084 -0.365501,0.338389 -0.954689,0.708917 -1.127274,0.708917 -0.03589,0 0.0665,-0.248934 0.227526,-0.553189 z"
           id="path25"
           sodipodi:nodetypes="ssssssssssssssssssssssssss" /><path
           style="fill:url(#linearGradient34);fill-opacity:1;stroke:url(#linearGradient35);stroke-width:0.967559;stroke-linecap:round;stroke-dasharray:none;paint-order:markers fill stroke"
           d="m 194.12701,241.29468 c -1.7271,-0.62533 -3.5731,-1.58432 -5.70734,-2.96496 -2.25353,-1.4578 -4.72076,-2.58442 -8.03871,-3.67074 l -2.59515,-0.84968 2.20207,-1.14003 c 1.75002,-0.90601 2.68353,-1.62464 4.5474,-3.50067 l 2.34533,-2.36062 1.84919,0.40752 c 5.33359,1.17542 8.33041,2.56896 12.37602,5.75493 1.40554,1.10687 2.60873,1.95929 2.67376,1.89425 0.065,-0.065 -0.89167,-1.075 -2.12601,-2.24438 -3.44174,-3.26063 -8.36772,-5.89709 -12.27836,-6.57158 -0.94086,-0.16228 -1.93465,-0.25478 -1.93465,-0.31506 0,-0.0603 0.40949,-0.48231 0.6362,-0.82831 0.33918,-0.51766 0.47891,-0.57371 0.78891,-0.31644 0.91745,0.76142 3.69715,0.19496 5.3454,-1.0893 0.57246,-0.44605 0.61983,-0.44493 1.51682,0.0358 0.50925,0.27294 1.28623,0.49626 1.72662,0.49626 0.44038,0 1.52548,0.22399 2.41133,0.49776 4.14017,1.27953 7.4943,4.72609 8.7053,8.94518 0.34777,1.21164 0.36679,1.62107 0.11183,2.40758 -0.47126,1.45377 -1.6316,4.07225 -2.38157,4.96355 0,0 -0.52851,0.79641 -1.00519,0.81511 -1.08062,0.0424 -4.91934,0.10188 -4.91934,0.10188 -4.15716,-0.008 -5.19265,-0.0852 -6.24986,-0.46794 z"
           id="path26"
           transform="scale(0.26458333)"
           sodipodi:nodetypes="csscsscssssssssssssssssccc" /><path
           style="fill:#ffffff;fill-opacity:1;stroke:none;stroke-width:0.48419;stroke-linecap:round;stroke-dasharray:none;paint-order:stroke markers fill"
           d="m 189.78703,223.39417 c -0.15681,-0.063 -0.28511,-0.16718 -0.28511,-0.23145 0,-0.44142 3.30236,-4.0729 3.70377,-4.0729 0.30553,0 0.66642,1.07158 0.66148,1.96408 -0.005,0.87047 -0.25225,1.43506 -0.79978,1.82494 -0.72535,0.51649 -2.5603,0.80476 -3.28036,0.51533 z"
           id="path27"
           transform="scale(0.26458333)" /><path
           style="fill:#ffffff;fill-opacity:1;stroke:none;stroke-width:0.48419;stroke-linecap:round;stroke-dasharray:none;paint-order:stroke markers fill"
           d="m 196.47124,221.98489 c -0.60878,-0.40825 -1.19425,-1.59744 -1.19969,-2.43676 -0.004,-0.62413 0.003,-0.6351 0.44388,-0.72843 0.24639,-0.0521 2.02836,-0.11245 3.95994,-0.13407 l 3.51196,-0.0393 -1.1e-4,0.54578 c -1.8e-4,0.96729 -0.24244,1.63222 -0.76751,2.10658 -0.71594,0.64681 -1.53101,0.85187 -3.66761,0.92271 -1.76849,0.0586 -1.85399,0.0498 -2.28086,-0.2365 z"
           id="path28"
           transform="scale(0.26458333)" /><path
           style="fill:#ffffff;fill-opacity:1;stroke:none;stroke-width:0.48419;stroke-linecap:round;stroke-dasharray:none;paint-order:stroke markers fill"
           d="m 204.32809,220.48422 c -0.24495,-0.24495 -0.27512,-0.38544 -0.23113,-1.07628 0.0396,-0.62207 0.12598,-0.89339 0.39786,-1.24984 0.41425,-0.54312 3.0445,-2.32729 3.59248,-2.43689 0.46828,-0.0937 0.53699,0.0386 0.63797,1.22841 0.1059,1.24789 -0.12515,2.04258 -0.74919,2.57673 -0.59739,0.51134 -1.84119,1.03728 -2.7328,1.15556 -0.55001,0.073 -0.67059,0.0469 -0.91519,-0.19769 z"
           id="path29"
           transform="scale(0.26458333)" /><path
           style="fill:#000000;stroke-width:0.401198"
           d="m 53.822016,67.062602 c 3.103036,-0.57597 4.095074,-1.239732 4.411551,-2.951723 0.13554,-0.733226 -0.02491,-1.812552 -0.37104,-2.495573 -0.314435,-0.620505 -1.132662,-1.394077 -1.869478,-1.76745 l -0.563993,-0.285798 0.887824,-0.811175 c 1.663938,-1.520288 2.33385,-2.802562 2.188868,-4.189676 -0.226858,-2.170444 -2.23404,-3.754084 -3.934847,-3.10454 -0.449234,0.171564 -0.854733,0.539306 -1.240468,1.124958 -0.164119,0.249186 -0.183561,0.253501 -0.373436,0.08293 -0.413165,-0.371138 -1.135015,-0.611497 -1.841813,-0.613278 -0.893962,-0.0023 -1.375556,0.137892 -1.934565,0.562959 -0.970265,0.73779 -1.318985,1.745219 -1.622937,4.688559 -0.09044,0.875742 -0.21628,1.854978 -0.279656,2.176084 -0.15149,0.767566 -0.544494,1.529218 -0.939892,1.82155 -0.174993,0.129384 -0.318167,0.263888 -0.318167,0.298914 0,0.03502 0.226896,0.305933 0.504214,0.602015 0.277318,0.296083 0.837774,1.122463 1.24546,1.836403 0.903936,1.582975 1.665371,2.429922 2.549414,2.835733 0.530082,0.243328 0.806031,0.29692 1.64533,0.319542 0.565187,0.01518 1.381686,-0.04209 1.857631,-0.130452 z m -3.486115,-0.830274 c -0.703263,-0.344077 -1.397445,-1.081335 -2.003333,-2.127662 -0.239274,-0.41321 -0.568494,-0.964657 -0.731601,-1.225441 -0.163103,-0.260783 -0.282904,-0.487802 -0.266218,-0.504487 0.101054,-0.101054 1.425334,0.489653 2.204043,0.983127 1.64068,1.039709 1.689162,1.053516 3.799375,1.082041 1.018306,0.01385 2.013883,0.07863 2.212397,0.14415 0.272039,0.08978 0.391203,0.08829 0.483844,-0.006 0.152675,-0.155444 -0.265937,-0.534674 -0.590177,-0.534674 -0.160701,0 -0.193087,-0.04488 -0.134039,-0.185764 0.475504,-1.134392 0.600727,-1.687982 0.556624,-2.460712 -0.02523,-0.441875 -0.08439,-0.898946 -0.13147,-1.015712 -0.145133,-0.359909 1.220801,1.03477 1.455482,1.486106 0.140245,0.269724 0.239102,0.705142 0.271005,1.193713 0.114718,1.756634 -0.465035,2.422011 -2.631394,3.020072 -2.14157,0.59122 -3.501749,0.636998 -4.494544,0.151273 z m 0.776715,-2.435276 C 50.790102,63.664365 50.312428,63.409305 50.051115,63.23027 49.366654,62.761319 48.737211,62.458349 47.775284,62.134846 l -0.845365,-0.284301 0.614933,-0.281527 c 0.401856,-0.183974 0.831119,-0.508014 1.238838,-0.935165 l 0.623903,-0.653641 0.663204,0.130485 c 1.313563,0.258426 2.182887,0.677216 3.273546,1.576997 l 0.583827,0.481651 -0.583827,-0.610439 c -0.700255,-0.732175 -2.381963,-1.62065 -3.265678,-1.725312 l -0.542298,-0.06423 0.168285,-0.256839 c 0.117672,-0.179585 0.201855,-0.223269 0.279888,-0.145234 0.214737,0.214739 0.884141,0.126681 1.226434,-0.16135 0.303632,-0.255489 0.339612,-0.262277 0.562512,-0.106143 0.130968,0.09174 0.420168,0.166806 0.642648,0.166806 0.44736,0 1.243057,0.362788 1.772145,0.807985 0.446168,0.375428 0.835087,0.99892 1.02772,1.647602 0.153542,0.517006 0.152758,0.521228 -0.248457,1.359782 -0.269666,0.563602 -0.472527,0.856231 -0.614773,0.886824 -0.11677,0.02511 -0.76163,0.05104 -1.433032,0.05759 -1.044174,0.01018 -1.305534,-0.02296 -1.807121,-0.229327 z m -3.977229,-3.000115 c 0.420779,-0.698772 0.500978,-1.035905 0.795334,-3.343324 0.229758,-1.801062 0.440607,-2.800106 0.694636,-3.291347 0.792298,-1.532129 2.838484,-1.97108 4.013615,-0.861004 0.166689,0.157462 0.490894,0.560946 0.720471,0.896646 0.435482,0.636792 0.648866,0.744175 0.824955,0.41515 0.08164,-0.152524 0.02445,-0.314084 -0.26164,-0.738863 -0.201367,-0.299009 -0.366118,-0.584023 -0.366118,-0.633368 0,-0.04933 0.121359,-0.254194 0.269671,-0.455227 1.019271,-1.381545 2.921387,-1.010535 3.784199,0.738114 0.195822,0.396861 0.241397,0.66754 0.243111,1.443783 0.002,0.843459 -0.03422,1.029381 -0.308208,1.587381 -0.27345,0.556929 -1.930353,2.470206 -2.04228,2.358278 -0.02094,-0.02095 0.01769,-0.397073 0.08592,-0.835813 0.08811,-0.566694 0.09218,-0.923156 0.01402,-1.230884 -0.0999,-0.393588 -0.08687,-0.454849 0.142514,-0.670356 0.138861,-0.130451 0.252471,-0.297689 0.252471,-0.371641 0,-0.355452 -0.295483,-0.202537 -1.09871,0.568593 -1.011103,0.970701 -1.457062,1.150472 -2.560775,1.032274 -1.266354,-0.135607 -1.720185,0.159664 -3.194208,2.078233 -0.732555,0.953485 -1.406578,1.565711 -1.974206,1.793201 -0.405357,0.162452 -0.4071,0.138427 -0.03482,-0.479826 z m 2.980051,-1.728602 c -0.0313,-0.05066 0.188392,-0.34796 0.48822,-0.660677 0.490263,-0.511334 0.553388,-0.54748 0.627024,-0.359035 0.158297,0.405092 0.103707,0.776483 -0.13911,0.946569 -0.253314,0.177426 -0.882541,0.224575 -0.976129,0.07314 z m 1.69498,-0.468804 c -0.08737,-0.133355 -0.172072,-0.355994 -0.188211,-0.49476 -0.02917,-0.25061 -0.02202,-0.25237 1.058701,-0.261759 l 1.088049,-0.0095 -0.0016,0.265374 c -0.0032,0.521692 -0.3476,0.716679 -1.296277,0.73393 -0.411171,0.0075 -0.530451,-0.03465 -0.660632,-0.233333 z m 2.170826,-0.53115 c 0,-0.303961 0.07421,-0.398987 0.575062,-0.736298 0.465589,-0.313569 0.586831,-0.356618 0.636901,-0.22614 0.08194,0.213509 0.07853,0.613693 -0.0071,0.836888 -0.07863,0.204927 -0.611128,0.464226 -0.966004,0.470398 -0.200096,0.0035 -0.238837,-0.05245 -0.238837,-0.344848 z"
           id="path30"
           sodipodi:nodetypes="sssscssssscsssssssscssssssscssscsssssssssscsscsscsscsssssssssssscssssssssscssscssssssccsssssscsccssccsssssss" /></g></g></g><metadata
     id="metadata1"><rdf:RDF><cc:Work
         rdf:about="" /></rdf:RDF></metadata></svg>
