<?xml version="1.0" encoding="UTF-8" standalone="no"?>
<!-- Created with Inkscape (http://www.inkscape.org/) -->

<svg
   width="27.112509mm"
   height="27.1045mm"
   viewBox="0 0 27.112509 27.1045"
   version="1.1"
   id="svg1"
   inkscape:version="1.4 (86a8ad7, 2024-10-11)"
   sodipodi:docname="drawing.svg"
   xml:space="preserve"
   xmlns:inkscape="http://www.inkscape.org/namespaces/inkscape"
   xmlns:sodipodi="http://sodipodi.sourceforge.net/DTD/sodipodi-0.dtd"
   xmlns="http://www.w3.org/2000/svg"
   xmlns:svg="http://www.w3.org/2000/svg"
   xmlns:rdf="http://www.w3.org/1999/02/22-rdf-syntax-ns#"
   xmlns:cc="http://creativecommons.org/ns#"><sodipodi:namedview
     id="namedview1"
     pagecolor="#ffffff"
     bordercolor="#000000"
     borderopacity="0.25"
     inkscape:showpageshadow="2"
     inkscape:pageopacity="0.0"
     inkscape:pagecheckerboard="0"
     inkscape:deskcolor="#d1d1d1"
     inkscape:document-units="mm"
     inkscape:zoom="1.4342733"
     inkscape:cx="250.30097"
     inkscape:cy="1003.6441"
     inkscape:window-width="1920"
     inkscape:window-height="1001"
     inkscape:window-x="-9"
     inkscape:window-y="-9"
     inkscape:window-maximized="1"
     inkscape:current-layer="g1079"><inkscape:page
       x="0"
       y="0"
       width="27.112509"
       height="27.1045"
       id="page1"
       margin="0"
       bleed="0" /></sodipodi:namedview><defs
     id="defs1"><inkscape:path-effect
       effect="fill_between_many"
       method="originald"
       linkedpaths="#path1081,0,1"
       id="path-effect1081"
       is_visible="true"
       lpeversion="0"
       join="true"
       close="true"
       autoreverse="true" /></defs><g
     inkscape:groupmode="layer"
     id="layer2"
     inkscape:label="Assets"
     transform="translate(-105.88707,-233.22928)"><g
       id="g1079"
       inkscape:export-filename="sheeplelogo.png"
       inkscape:export-xdpi="300"
       inkscape:export-ydpi="300"><g
         id="g1082"
         inkscape:export-filename="sheeple_favicon.png"
         inkscape:export-xdpi="18.787132"
         inkscape:export-ydpi="18.787132"
         transform="matrix(0.20047865,0,0,0.20047865,131.14397,132.13404)"><path
           style="fill:#ffffff"
           d="m -225.50404,666.23471 c -6.12691,-1.1152 -11.44637,-4.39339 -14.88822,-9.17508 -1.25361,-1.74162 -3.17941,-5.61719 -3.4409,-6.92463 -0.15056,-0.75279 -0.2428,-0.803 -1.78387,-0.97088 -4.24914,-0.46291 -8.2152,-1.97804 -11.42229,-4.36359 -4.04242,-3.0069 -6.94906,-7.23583 -8.49503,-12.35957 -0.61462,-2.03699 -0.70072,-2.77316 -0.68993,-5.8993 0.007,-2.1576 0.15937,-4.14806 0.38372,-5.02708 l 0.37141,-1.45521 -1.66514,-1.54193 c -2.02728,-1.87728 -4.52563,-5.54043 -5.46231,-8.009 -1.20156,-3.16664 -1.58118,-5.27498 -1.56742,-8.70532 0.0151,-3.75637 0.58284,-6.26292 2.17146,-9.5862 l 1.04108,-2.17787 -0.93968,-1.39401 c -1.42304,-2.11104 -2.39111,-4.16627 -3.17452,-6.73949 -0.62878,-2.06536 -0.70857,-2.75941 -0.70857,-6.16389 0,-3.41966 0.0783,-4.09374 0.72039,-6.20465 1.40341,-4.61359 3.91189,-8.42466 7.50814,-11.40694 2.08077,-1.72553 6.42455,-3.95395 8.57692,-4.40007 l 1.5025,-0.31142 0.72552,-1.7369 c 1.5602,-3.73518 4.46724,-7.40718 7.68796,-9.71098 2.00821,-1.43649 5.47496,-3.06553 7.7638,-3.64823 0.94589,-0.24081 2.96995,-0.50706 4.49792,-0.59166 2.04498,-0.11323 3.40653,-0.0356 5.15938,0.29409 1.30968,0.24635 3.05704,0.71976 3.883,1.052 l 1.50176,0.60409 1.54095,-1.57178 c 2.91565,-2.97397 6.18909,-4.93891 10.32602,-6.19837 2.06537,-0.62879 2.75941,-0.70858 6.16389,-0.70858 3.40448,0 4.09852,0.0798 6.16389,0.70858 4.13693,1.25946 7.41037,3.2244 10.32602,6.19837 l 1.54095,1.57178 1.50176,-0.60409 c 0.82596,-0.33224 2.57332,-0.80565 3.883,-1.052 1.75285,-0.32971 3.1144,-0.40732 5.15938,-0.29409 3.38375,0.18736 5.5263,0.70921 8.42526,2.0521 5.25212,2.43296 9.05075,6.32225 11.40331,11.67546 l 0.85654,1.94904 1.40288,0.32616 c 5.25671,1.22213 10.92121,5.40961 13.70193,10.12913 2.35062,3.98955 3.54335,8.79046 3.27983,13.20188 -0.2462,4.1217 -1.79822,8.59595 -4.05578,11.69229 l -0.90501,1.24125 0.90663,1.80146 c 1.23615,2.45622 1.92247,4.8032 2.27983,7.79618 0.38087,3.18996 0.0295,6.28597 -1.10018,9.69276 -1.21586,3.66679 -3.45813,7.12064 -6.18174,9.52193 l -1.35055,1.19072 0.39802,1.6166 c 0.2496,1.01377 0.39546,2.84989 0.39115,4.92389 -0.005,2.54313 -0.13895,3.79635 -0.5785,5.42396 -0.67801,2.5106 -1.97435,5.33551 -3.42287,7.45889 -1.40693,2.06242 -4.02537,4.6316 -6.1808,6.06453 -2.95052,1.9615 -6.67864,3.27407 -10.44744,3.67826 -1.58306,0.16978 -1.63306,0.19885 -1.79111,1.04133 -0.23364,1.24539 -2.28534,5.3417 -3.45217,6.8924 -2.29668,3.05227 -5.02166,5.35335 -8.26326,6.97785 -0.90273,0.4524 -2.68866,1.14098 -3.96875,1.53019 -2.05045,0.62345 -2.76825,0.70737 -6.0316,0.70521 -2.97618,-0.002 -4.12015,-0.11576 -5.82083,-0.57901 -2.33708,-0.6366 -4.88809,-1.75589 -6.81302,-2.98932 l -1.25677,-0.80529 -1.25677,0.80529 c -1.9619,1.25712 -4.50224,2.36223 -6.81302,2.96383 -2.38003,0.61963 -7.19231,0.89366 -9.21815,0.52493 z m 6.92256,-8.08074 c 2.36097,-0.55659 4.3332,-1.5561 6.18192,-3.13292 2.35374,-2.00759 2.85818,-2.28286 4.18346,-2.28286 1.32528,0 1.82972,0.27527 4.18346,2.28286 1.84872,1.57682 3.82095,2.57633 6.18192,3.13292 2.28733,0.53924 4.51112,0.50066 6.93942,-0.1204 2.47503,-0.633 4.63002,-1.74565 6.42901,-3.31936 2.44987,-2.14308 4.33402,-5.69397 4.72435,-8.90352 0.0943,-0.77531 0.40443,-1.90851 0.68921,-2.51823 0.37989,-0.81337 0.82012,-1.25494 1.65317,-1.65821 0.9805,-0.47466 1.43854,-0.52745 3.35753,-0.38699 2.73934,0.2005 5.33851,-0.30159 7.85279,-1.51696 1.24445,-0.60154 2.37349,-1.45846 3.76398,-2.85678 2.28805,-2.30094 3.50263,-4.49676 4.13704,-7.47933 0.54868,-2.57945 0.31922,-5.17754 -0.72614,-8.22212 -0.8703,-2.5347 -0.89747,-3.64536 -0.11828,-4.83455 0.22458,-0.34275 1.15275,-1.12787 2.06262,-1.74472 2.2204,-1.50533 3.96241,-3.33731 5.06384,-5.3254 1.76533,-3.18642 2.3392,-6.66926 1.6425,-9.96851 -0.4572,-2.16509 -1.781,-5.08326 -3.08278,-6.79566 -0.95187,-1.2521 -1.29272,-2.49026 -1.02429,-3.72079 0.10775,-0.49393 0.86289,-1.60051 1.80315,-2.6423 1.94259,-2.15238 3.30771,-4.65137 3.89004,-7.12116 0.81237,-3.44545 0.11024,-7.72061 -1.80363,-10.98187 -2.26531,-3.86013 -6.22011,-6.40704 -10.97107,-7.06542 -3.17792,-0.44039 -3.93219,-1.11352 -4.74515,-4.23469 -1.03548,-3.97548 -3.81335,-7.49072 -7.40454,-9.37002 -2.62069,-1.37144 -4.94904,-1.8743 -7.90753,-1.70781 -2.74475,0.15446 -4.72183,0.775 -7.09623,2.22726 -1.27749,0.78135 -1.90559,1.00003 -2.87239,1.00003 -1.59278,0 -2.37688,-0.57866 -3.97287,-2.93193 -1.56079,-2.30137 -3.4788,-4.04784 -5.76449,-5.24893 -4.37887,-2.30104 -9.39041,-2.30104 -13.76929,0 -2.28569,1.20109 -4.2037,2.94756 -5.76448,5.24893 -0.68282,1.00681 -1.56591,2.06961 -1.96243,2.36178 -0.47066,0.3468 -1.15952,0.53797 -1.98437,0.55068 -1.01721,0.0157 -1.5821,-0.17543 -2.89847,-0.98056 -0.89926,-0.55002 -2.32801,-1.24601 -3.175,-1.54664 -2.15307,-0.76423 -5.78304,-0.93676 -8.12459,-0.38617 -2.1779,0.51212 -4.85775,1.87511 -6.56304,3.338 -1.66415,1.4276 -3.4673,4.20923 -4.1967,6.474 -1.02728,3.18974 -1.35507,3.82192 -2.27724,4.39185 -0.48623,0.3005 -1.73621,0.66446 -2.77775,0.8088 -6.0707,0.84126 -10.43587,4.44343 -12.45446,10.27748 -0.47996,1.38716 -0.59336,2.28269 -0.58632,4.6302 0.007,2.3337 0.1274,3.24527 0.60764,4.6002 0.73399,2.07088 1.87642,3.87458 3.83783,6.05928 1.41505,1.57614 1.49362,1.73688 1.49362,3.05574 0,1.24227 -0.15464,1.62579 -1.43677,3.56339 -1.65288,2.4979 -2.40375,4.33253 -2.83031,6.91548 -0.22332,1.35223 -0.22505,2.33883 -0.007,3.80708 0.16212,1.09001 0.53854,2.6334 0.8365,3.42977 0.87031,2.32611 2.91516,4.99642 4.93746,6.44769 2.66311,1.91115 3.45819,2.76124 3.6779,3.9324 0.15255,0.81311 0.0177,1.52698 -0.64632,3.42076 -0.46149,1.31627 -0.91095,3.17223 -0.99879,4.12437 -0.22981,2.491 0.30163,5.16325 1.53338,7.71035 0.80474,1.6641 1.50022,2.61557 2.96611,4.05788 2.22239,2.18663 4.29989,3.33063 7.23379,3.98336 1.4863,0.33067 2.59517,0.40369 4.22632,0.27831 2.57042,-0.19758 3.56448,0.10006 4.65245,1.39304 0.3876,0.46064 0.7737,1.2805 0.85801,1.82192 0.70203,4.5083 1.89402,7.11758 4.3784,9.58431 2.01093,1.99664 4.19805,3.24887 6.91982,3.96193 2.34395,0.61408 4.80531,0.66047 7.04375,0.13276 z m 6.04202,-13.08702 c -2.19101,-0.39693 -4.99623,-1.33769 -6.78914,-2.2768 -5.56719,-2.91607 -9.16887,-7.94149 -11.23686,-15.67879 -0.76589,-2.86555 -1.40666,-4.46185 -3.39858,-8.46667 -1.35011,-2.71443 -2.89875,-6.17314 -3.44144,-7.68604 -2.1593,-6.01968 -3.52214,-12.59818 -3.80145,-18.3498 l -0.16383,-3.37344 -1.2159,-0.002 c -3.48141,-0.006 -8.62045,-1.49503 -12.16749,-3.52618 -3.42196,-1.95952 -4.60189,-3.03396 -5.63385,-5.13019 -0.79654,-1.618 -0.87706,-2.00065 -0.87706,-4.16836 0,-2.0983 0.0902,-2.56271 0.74658,-3.84202 0.41062,-0.80036 1.06546,-1.79513 1.45521,-2.21059 1.86984,-1.99322 7.01101,-4.71887 10.89509,-5.77617 1.94822,-0.53033 2.83275,-0.60931 6.61458,-0.59063 3.95832,0.0196 4.58779,0.0888 6.74688,0.74262 1.30968,0.39657 3.59246,1.23991 5.07284,1.87408 3.75747,1.60963 6.11122,2.09023 9.44352,1.92824 2.01435,-0.0979 3.12427,-0.30014 4.46089,-0.81273 0.97863,-0.37531 2.51015,-1.19485 3.40338,-1.8212 2.84279,-1.99344 2.98293,-2.06208 4.20999,-2.06208 1.22706,0 1.3672,0.0686 4.20999,2.06208 0.89323,0.62635 2.42475,1.44589 3.40338,1.8212 1.33661,0.51259 2.44654,0.71481 4.46089,0.81273 3.33203,0.16198 5.70455,-0.32225 9.47944,-1.93474 1.48517,-0.63441 3.76184,-1.47639 5.05925,-1.87106 2.13753,-0.65023 2.76865,-0.7196 6.72455,-0.73914 3.78183,-0.0187 4.66636,0.0603 6.61458,0.59063 3.88408,1.0573 9.02525,3.78295 10.89509,5.77617 0.38975,0.41546 1.04459,1.41023 1.45521,2.21059 0.65633,1.27931 0.74657,1.74372 0.74657,3.84202 0,2.16438 -0.0812,2.5517 -0.871,4.15609 -0.9957,2.02254 -2.15134,3.12035 -5.07389,4.82 -3.83031,2.22756 -7.70832,3.47668 -11.67693,3.76117 l -2.276,0.16316 -0.16206,3.33659 c -0.27757,5.71473 -1.64546,12.30741 -3.79969,18.31296 -0.54269,1.5129 -2.09051,4.96996 -3.43961,7.68237 -1.83567,3.69066 -2.65679,5.68803 -3.26313,7.9375 -1.07863,4.00167 -1.87785,6.05656 -3.28073,8.43519 -1.47255,2.49677 -3.44887,4.7037 -5.53913,6.18547 -2.22212,1.57525 -3.95514,2.40891 -6.70626,3.22603 -1.93813,0.57565 -2.97597,0.70742 -6.16677,0.78294 -2.11005,0.0499 -4.41275,-0.0136 -5.11711,-0.1412 z m 0.35461,-11.45137 v -3.50941 l -1.34877,-0.64035 c -1.85614,-0.88124 -3.5979,-2.62334 -3.82312,-3.82388 -0.28599,-1.52446 0.0893,-2.82188 1.08887,-3.76462 1.60357,-1.51236 3.39928,-1.49992 5.56317,0.0385 1.01083,0.71867 1.55439,0.92162 2.46839,0.92162 0.92194,0 1.47959,-0.21176 2.61272,-0.99218 1.20552,-0.83028 1.66204,-0.99219 2.79749,-0.99219 1.00834,0 1.58544,0.16302 2.2467,0.63464 1.55002,1.10551 2.03942,3.17186 1.18011,4.98272 -0.46779,0.98578 -3.12953,3.13681 -4.22038,3.41059 -0.62119,0.15591 -0.62768,0.19394 -0.62768,3.6794 v 3.52187 l 0.99219,-0.26896 c 1.71618,-0.46522 4.10193,-1.88701 5.48612,-3.26946 0.73359,-0.73267 1.77368,-2.16922 2.31132,-3.19235 0.54218,-1.03177 1.39539,-3.40253 1.91582,-5.32336 1.06422,-3.92787 1.7795,-5.69663 4.2028,-10.3928 2.81918,-5.46334 4.59723,-10.91034 5.70025,-17.4625 0.73414,-4.36093 0.92292,-8.12549 0.57938,-11.55333 -0.35862,-3.57825 -1.06587,-6.45389 -2.18381,-8.8793 -0.63868,-1.38563 -0.93559,-1.77562 -1.25521,-1.64875 -0.23026,0.0914 -1.31162,0.41515 -2.40303,0.71945 -1.61405,0.45001 -2.7744,0.55689 -6.21771,0.5727 -3.66484,0.0168 -4.51456,-0.062 -6.32758,-0.58706 -1.87277,-0.54236 -4.64124,-1.76367 -6.18912,-2.73034 -0.48659,-0.30388 -0.69315,-0.27123 -1.56263,0.247 -1.65827,0.98838 -3.79842,1.89989 -5.89671,2.51147 -1.69209,0.49318 -2.6079,0.57551 -6.2177,0.55893 -3.44331,-0.0158 -4.60366,-0.12269 -6.21771,-0.5727 -1.09141,-0.3043 -2.17277,-0.62805 -2.40303,-0.71945 -0.31963,-0.12687 -0.61653,0.26312 -1.25521,1.64875 -2.90302,6.2982 -3.11289,15.45916 -0.58326,25.45971 1.19142,4.7101 2.21324,7.40663 4.76241,12.56771 2.6959,5.45817 3.17552,6.66363 4.10549,10.31875 1.2786,5.02535 3.51121,8.51181 6.61574,10.33119 1.0088,0.59119 3.46279,1.62366 4.03754,1.69872 0.0364,0.005 0.0661,-1.5706 0.0661,-3.50078 z m -11.63639,-32.40818 c -2.83222,-1.42296 -2.83222,-5.58768 0,-7.01064 0.50642,-0.25443 1.27795,-0.46261 1.71452,-0.46261 0.43656,0 1.20809,0.20818 1.71451,0.46261 2.83222,1.42296 2.83222,5.58768 0,7.01064 -0.50642,0.25443 -1.27795,0.46261 -1.71451,0.46261 -0.43657,0 -1.2081,-0.20818 -1.71452,-0.46261 z m 27.78125,0 c -1.32171,-0.66405 -2.12194,-1.98599 -2.12194,-3.50532 0,-0.85357 0.18871,-1.52715 0.60058,-2.14369 0.69252,-1.03663 2.08959,-1.82424 3.23587,-1.82424 1.14629,0 2.54336,0.78761 3.23588,1.82424 1.25866,1.88412 0.52109,4.62285 -1.52136,5.64901 -0.50642,0.25443 -1.27795,0.46261 -1.71452,0.46261 -0.43656,0 -1.20809,-0.20818 -1.71451,-0.46261 z m -44.27821,-22.28673 c 0.31567,-1.3039 0.99711,-3.3495 1.51432,-4.54579 0.5172,-1.19629 0.87368,-2.24136 0.79217,-2.32237 -0.0815,-0.081 -1.83451,-0.14108 -3.89556,-0.13347 -3.44587,0.0127 -3.90703,0.0738 -5.73175,0.75956 -2.30677,0.86689 -5.52448,2.67243 -5.73355,3.21724 -0.33225,0.86584 0.1894,1.59494 1.82069,2.54471 3.07279,1.78903 6.35162,2.79823 9.20453,2.83306 l 1.45521,0.0178 z m 71.12814,1.47455 c 2.04884,-0.65074 5.60762,-2.51644 6.01158,-3.15159 0.10891,-0.17124 0.19985,-0.58226 0.20208,-0.91338 0.003,-0.45222 -0.40747,-0.86291 -1.6496,-1.65035 -0.9095,-0.57657 -2.66568,-1.43069 -3.9026,-1.89804 -2.13586,-0.80699 -2.43742,-0.85041 -5.99633,-0.86319 -2.06105,-0.007 -3.81405,0.0528 -3.89556,0.13384 -0.0815,0.081 0.27827,1.13372 0.79951,2.33934 0.52124,1.20563 1.20268,3.26783 1.51431,4.58267 l 0.56661,2.39062 2.11667,-0.14882 c 1.16416,-0.0818 3.06916,-0.45135 4.23333,-0.8211 z"
           id="path1081"
           transform="matrix(0.92359085,0,0,0.92359085,133.88637,18.82101)" /><path
           inkscape:original-d="M 0,0"
           inkscape:path-effect="#path-effect1081"
           d="m -226.24193,651.47695 c -6.12691,-1.1152 -11.44637,-4.39339 -14.88822,-9.17508 -1.25361,-1.74162 -3.17941,-5.61719 -3.4409,-6.92463 -0.15056,-0.75279 -0.2428,-0.803 -1.78387,-0.97088 -4.24914,-0.46291 -8.2152,-1.97804 -11.42229,-4.36359 -4.04242,-3.0069 -6.94906,-7.23583 -8.49503,-12.35957 -0.61462,-2.03699 -0.70072,-2.77316 -0.68993,-5.8993 0.007,-2.1576 0.15937,-4.14806 0.38372,-5.02708 l 0.37141,-1.45521 -1.66514,-1.54193 c -2.02728,-1.87728 -4.52563,-5.54043 -5.46231,-8.009 -1.20156,-3.16664 -1.58118,-5.27498 -1.56742,-8.70532 0.0151,-3.75637 0.58284,-6.26292 2.17146,-9.5862 l 1.04108,-2.17787 -0.93968,-1.39401 c -1.42304,-2.11104 -2.39111,-4.16627 -3.17452,-6.73949 -0.62878,-2.06536 -0.70857,-2.75941 -0.70857,-6.16389 0,-3.41966 0.0783,-4.09374 0.72039,-6.20465 1.40341,-4.61359 3.91189,-8.42466 7.50814,-11.40694 2.08077,-1.72553 6.42455,-3.95395 8.57692,-4.40007 l 1.5025,-0.31142 0.72552,-1.7369 c 1.5602,-3.73518 4.46724,-7.40718 7.68796,-9.71098 2.00821,-1.43649 5.47496,-3.06553 7.7638,-3.64823 0.94589,-0.24081 2.96995,-0.50706 4.49792,-0.59166 2.04498,-0.11323 3.40653,-0.0356 5.15938,0.29409 1.30968,0.24635 3.05704,0.71976 3.883,1.052 l 1.50176,0.60409 1.54095,-1.57178 c 2.91565,-2.97397 6.18909,-4.93891 10.32602,-6.19837 2.06537,-0.62879 2.75941,-0.70858 6.16389,-0.70858 3.40448,0 4.09852,0.0798 6.16389,0.70858 4.13693,1.25946 7.41037,3.2244 10.32602,6.19837 l 1.54095,1.57178 1.50176,-0.60409 c 0.82596,-0.33224 2.57332,-0.80565 3.883,-1.052 1.75285,-0.32971 3.1144,-0.40732 5.15938,-0.29409 3.38375,0.18736 5.5263,0.70921 8.42526,2.0521 5.25212,2.43296 9.05075,6.32225 11.40331,11.67546 l 0.85654,1.94904 1.40288,0.32616 c 5.25671,1.22213 10.92121,5.40961 13.70193,10.12913 2.35062,3.98955 3.54335,8.79046 3.27983,13.20188 -0.2462,4.1217 -1.79822,8.59595 -4.05578,11.69229 l -0.90501,1.24125 0.90663,1.80146 c 1.23615,2.45622 1.92247,4.8032 2.27983,7.79618 0.38087,3.18996 0.0295,6.28597 -1.10018,9.69276 -1.21586,3.66679 -3.45813,7.12064 -6.18174,9.52193 l -1.35055,1.19072 0.39802,1.6166 c 0.2496,1.01377 0.39546,2.84989 0.39115,4.92389 -0.005,2.54313 -0.13895,3.79635 -0.5785,5.42396 -0.67801,2.5106 -1.97435,5.33551 -3.42287,7.45889 -1.40693,2.06242 -4.02537,4.6316 -6.1808,6.06453 -2.95052,1.9615 -6.67864,3.27407 -10.44744,3.67826 -1.58306,0.16978 -1.63306,0.19885 -1.79111,1.04133 -0.23364,1.24539 -2.28534,5.3417 -3.45217,6.8924 -2.29668,3.05227 -5.02166,5.35335 -8.26326,6.97785 -0.90273,0.4524 -2.68866,1.14098 -3.96875,1.53019 -2.05045,0.62345 -2.76825,0.70737 -6.0316,0.70521 -2.97618,-0.002 -4.12015,-0.11576 -5.82083,-0.57901 -2.33708,-0.6366 -4.88809,-1.75589 -6.81302,-2.98932 l -1.25677,-0.80529 -1.25677,0.80529 c -1.9619,1.25712 -4.50224,2.36223 -6.81302,2.96383 -2.38003,0.61963 -7.19231,0.89366 -9.21815,0.52493 z"
           id="path1082"
           style="fill:#ffffff"
           transform="matrix(0.92359085,0,0,0.92359085,134.56788,32.451146)" /><path
           style="fill:#1a1a1a;fill-opacity:1"
           d="m -75.71274,639.30179 c -6.12691,-1.1152 -11.44637,-4.39339 -14.88822,-9.17508 -1.25361,-1.74162 -3.17941,-5.61719 -3.4409,-6.92463 -0.15056,-0.75279 -0.2428,-0.803 -1.78387,-0.97088 -4.24914,-0.46291 -8.2152,-1.97804 -11.42229,-4.36359 -4.04242,-3.0069 -6.94906,-7.23583 -8.49503,-12.35957 -0.61462,-2.03699 -0.70072,-2.77316 -0.68993,-5.8993 0.007,-2.1576 0.15937,-4.14806 0.38372,-5.02708 l 0.37141,-1.45521 -1.66514,-1.54193 c -2.02728,-1.87728 -4.52563,-5.54043 -5.46231,-8.009 -1.20156,-3.16664 -1.58118,-5.27498 -1.56742,-8.70532 0.0151,-3.75637 0.58284,-6.26292 2.17146,-9.5862 l 1.04108,-2.17787 -0.93968,-1.39401 c -1.42304,-2.11104 -2.39111,-4.16627 -3.17452,-6.73949 -0.62878,-2.06536 -0.70857,-2.75941 -0.70857,-6.16389 0,-3.41966 0.0783,-4.09374 0.72039,-6.20465 1.40341,-4.61359 3.91189,-8.42466 7.50814,-11.40694 2.08077,-1.72553 6.42455,-3.95395 8.57692,-4.40007 l 1.5025,-0.31142 0.72552,-1.7369 c 1.5602,-3.73518 4.46724,-7.40718 7.68796,-9.71098 2.00821,-1.43649 5.47496,-3.06553 7.7638,-3.64823 0.94589,-0.24081 2.96995,-0.50706 4.49792,-0.59166 2.04498,-0.11323 3.40653,-0.0356 5.15938,0.29409 1.30968,0.24635 3.05704,0.71976 3.883,1.052 l 1.50176,0.60409 1.54095,-1.57178 c 2.91565,-2.97397 6.18909,-4.93891 10.32602,-6.19837 2.06537,-0.62879 2.75941,-0.70858 6.16389,-0.70858 3.40448,0 4.09852,0.0798 6.16389,0.70858 4.13693,1.25946 7.41037,3.2244 10.32602,6.19837 l 1.54095,1.57178 1.50176,-0.60409 c 0.82596,-0.33224 2.57332,-0.80565 3.883,-1.052 1.75285,-0.32971 3.1144,-0.40732 5.15938,-0.29409 3.38375,0.18736 5.5263,0.70921 8.42526,2.0521 5.25212,2.43296 9.05075,6.32225 11.40331,11.67546 l 0.8565402,1.94904 1.40288,0.32616 c 5.25671,1.22213 10.92121,5.40961 13.70193,10.12913 2.35062,3.98955 3.54335,8.79046 3.27983,13.20188 -0.2462,4.1217 -1.79822,8.59595 -4.05578,11.69229 l -0.90501,1.24125 0.90663,1.80146 c 1.23615,2.45622 1.92247,4.8032 2.27983,7.79618 0.38087,3.18996 0.0295,6.28597 -1.10018,9.69276 -1.21586,3.66679 -3.45813,7.12064 -6.18173997,9.52193 l -1.35055003,1.19072 0.39802003,1.6166 c 0.2496,1.01377 0.39546,2.84989 0.39115,4.92389 -0.005,2.54313 -0.13895,3.79635 -0.5785,5.42396 -0.67801003,2.5106 -1.97435003,5.33551 -3.42287003,7.45889 -1.40693,2.06242 -4.02537,4.6316 -6.1808002,6.06453 -2.95052,1.9615 -6.67864,3.27407 -10.44744,3.67826 -1.58306,0.16978 -1.63306,0.19885 -1.79111,1.04133 -0.23364,1.24539 -2.28534,5.3417 -3.45217,6.8924 -2.29668,3.05227 -5.02166,5.35335 -8.26326,6.97785 -0.90273,0.4524 -2.68866,1.14098 -3.96875,1.53019 -2.05045,0.62345 -2.76825,0.70737 -6.0316,0.70521 -2.97618,-0.002 -4.12015,-0.11576 -5.82083,-0.57901 -2.33708,-0.6366 -4.88809,-1.75589 -6.81302,-2.98932 l -1.25677,-0.80529 -1.25677,0.80529 c -1.9619,1.25712 -4.50224,2.36223 -6.81302,2.96383 -2.38003,0.61963 -7.19231,0.89366 -9.21815,0.52493 z m 6.92256,-8.08074 c 2.36097,-0.55659 4.3332,-1.5561 6.18192,-3.13292 2.35374,-2.00759 2.85818,-2.28286 4.18346,-2.28286 1.32528,0 1.82972,0.27527 4.18346,2.28286 1.84872,1.57682 3.82095,2.57633 6.18192,3.13292 2.28733,0.53924 4.51112,0.50066 6.93942,-0.1204 2.47503,-0.633 4.63002,-1.74565 6.42901,-3.31936 2.44987,-2.14308 4.33402,-5.69397 4.72435,-8.90352 0.0943,-0.77531 0.40443,-1.90851 0.68921,-2.51823 0.37989,-0.81337 0.82012,-1.25494 1.65317,-1.65821 0.9805,-0.47466 1.43854,-0.52745 3.35753,-0.38699 2.73934,0.2005 5.33851,-0.30159 7.85279,-1.51696 1.24445,-0.60154 2.37349,-1.45846 3.76398,-2.85678 2.28805,-2.30094 3.5026302,-4.49676 4.1370402,-7.47933 0.54868,-2.57945 0.31922,-5.17754 -0.72614,-8.22212 -0.8703002,-2.5347 -0.8974702,-3.64536 -0.11828,-4.83455 0.22458,-0.34275 1.15275,-1.12787 2.06262,-1.74472 2.2204,-1.50533 3.96241,-3.33731 5.06384,-5.3254 1.76533003,-3.18642 2.33920003,-6.66926 1.64250003,-9.96851 -0.45720003,-2.16509 -1.78100003,-5.08326 -3.08278003,-6.79566 -0.95187,-1.2521 -1.29272,-2.49026 -1.02429,-3.72079 0.10775,-0.49393 0.86289,-1.60051 1.80315,-2.6423 1.94259003,-2.15238 3.30771003,-4.65137 3.89004003,-7.12116 0.81236997,-3.44545 0.11023997,-7.72061 -1.80363,-10.98187 -2.26531003,-3.86013 -6.22011003,-6.40704 -10.97107023,-7.06542 -3.17792,-0.44039 -3.93219,-1.11352 -4.74515,-4.23469 -1.03548,-3.97548 -3.81335,-7.49072 -7.40454,-9.37002 -2.62069,-1.37144 -4.94904,-1.8743 -7.90753,-1.70781 -2.74475,0.15446 -4.72183,0.775 -7.09623,2.22726 -1.27749,0.78135 -1.90559,1.00003 -2.87239,1.00003 -1.59278,0 -2.37688,-0.57866 -3.97287,-2.93193 -1.56079,-2.30137 -3.4788,-4.04784 -5.76449,-5.24893 -4.37887,-2.30104 -9.39041,-2.30104 -13.76929,0 -2.28569,1.20109 -4.2037,2.94756 -5.76448,5.24893 -0.68282,1.00681 -1.56591,2.06961 -1.96243,2.36178 -0.47066,0.3468 -1.15952,0.53797 -1.98437,0.55068 -1.01721,0.0157 -1.5821,-0.17543 -2.89847,-0.98056 -0.89926,-0.55002 -2.32801,-1.24601 -3.175,-1.54664 -2.15307,-0.76423 -5.78304,-0.93676 -8.12459,-0.38617 -2.1779,0.51212 -4.85775,1.87511 -6.56304,3.338 -1.66415,1.4276 -3.4673,4.20923 -4.1967,6.474 -1.02728,3.18974 -1.35507,3.82192 -2.27724,4.39185 -0.48623,0.3005 -1.73621,0.66446 -2.77775,0.8088 -6.0707,0.84126 -10.43587,4.44343 -12.45446,10.27748 -0.47996,1.38716 -0.59336,2.28269 -0.58632,4.6302 0.007,2.3337 0.1274,3.24527 0.60764,4.6002 0.73399,2.07088 1.87642,3.87458 3.83783,6.05928 1.41505,1.57614 1.49362,1.73688 1.49362,3.05574 0,1.24227 -0.15464,1.62579 -1.43677,3.56339 -1.65288,2.4979 -2.40375,4.33253 -2.83031,6.91548 -0.22332,1.35223 -0.22505,2.33883 -0.007,3.80708 0.16212,1.09001 0.53854,2.6334 0.8365,3.42977 0.87031,2.32611 2.91516,4.99642 4.93746,6.44769 2.66311,1.91115 3.45819,2.76124 3.6779,3.9324 0.15255,0.81311 0.0177,1.52698 -0.64632,3.42076 -0.46149,1.31627 -0.91095,3.17223 -0.99879,4.12437 -0.22981,2.491 0.30163,5.16325 1.53338,7.71035 0.80474,1.6641 1.50022,2.61557 2.96611,4.05788 2.22239,2.18663 4.29989,3.33063 7.23379,3.98336 1.4863,0.33067 2.59517,0.40369 4.22632,0.27831 2.57042,-0.19758 3.56448,0.10006 4.65245,1.39304 0.3876,0.46064 0.7737,1.2805 0.85801,1.82192 0.70203,4.5083 1.89402,7.11758 4.3784,9.58431 2.01093,1.99664 4.19805,3.24887 6.91982,3.96193 2.34395,0.61408 4.80531,0.66047 7.04375,0.13276 z m 6.04202,-13.08702 c -2.19101,-0.39693 -4.99623,-1.33769 -6.78914,-2.2768 -5.56719,-2.91607 -9.16887,-7.94149 -11.23686,-15.67879 -0.76589,-2.86555 -1.40666,-4.46185 -3.39858,-8.46667 -1.35011,-2.71443 -2.89875,-6.17314 -3.44144,-7.68604 -2.1593,-6.01968 -3.52214,-12.59818 -3.80145,-18.3498 l -0.16383,-3.37344 -1.2159,-0.002 c -3.48141,-0.006 -8.62045,-1.49503 -12.16749,-3.52618 -3.42196,-1.95952 -4.60189,-3.03396 -5.63385,-5.13019 -0.79654,-1.618 -0.87706,-2.00065 -0.87706,-4.16836 0,-2.0983 0.0902,-2.56271 0.74658,-3.84202 0.41062,-0.80036 1.06546,-1.79513 1.45521,-2.21059 1.86984,-1.99322 7.01101,-4.71887 10.89509,-5.77617 1.94822,-0.53033 2.83275,-0.60931 6.61458,-0.59063 3.95832,0.0196 4.58779,0.0888 6.74688,0.74262 1.30968,0.39657 3.59246,1.23991 5.07284,1.87408 3.75747,1.60963 6.11122,2.09023 9.44352,1.92824 2.01435,-0.0979 3.12427,-0.30014 4.46089,-0.81273 0.97863,-0.37531 2.51015,-1.19485 3.40338,-1.8212 2.84279,-1.99344 2.98293,-2.06208 4.20999,-2.06208 1.22706,0 1.3672,0.0686 4.20999,2.06208 0.89323,0.62635 2.42475,1.44589 3.40338,1.8212 1.33661,0.51259 2.44654,0.71481 4.46089,0.81273 3.33203,0.16198 5.70455,-0.32225 9.47944,-1.93474 1.48517,-0.63441 3.76184,-1.47639 5.05925,-1.87106 2.13753,-0.65023 2.76865,-0.7196 6.72455,-0.73914 3.78183,-0.0187 4.66636,0.0603 6.61458,0.59063 3.88408,1.0573 9.0252502,3.78295 10.8950902,5.77617 0.38975,0.41546 1.04459,1.41023 1.45521,2.21059 0.65633,1.27931 0.74657,1.74372 0.74657,3.84202 0,2.16438 -0.0812,2.5517 -0.871,4.15609 -0.9957,2.02254 -2.15134,3.12035 -5.0738902,4.82 -3.83031,2.22756 -7.70832,3.47668 -11.67693,3.76117 l -2.276,0.16316 -0.16206,3.33659 c -0.27757,5.71473 -1.64546,12.30741 -3.79969,18.31296 -0.54269,1.5129 -2.09051,4.96996 -3.43961,7.68237 -1.83567,3.69066 -2.65679,5.68803 -3.26313,7.9375 -1.07863,4.00167 -1.87785,6.05656 -3.28073,8.43519 -1.47255,2.49677 -3.44887,4.7037 -5.53913,6.18547 -2.22212,1.57525 -3.95514,2.40891 -6.70626,3.22603 -1.93813,0.57565 -2.97597,0.70742 -6.16677,0.78294 -2.11005,0.0499 -4.41275,-0.0136 -5.11711,-0.1412 z m 0.35461,-11.45137 v -3.50941 l -1.34877,-0.64035 c -1.85614,-0.88124 -3.5979,-2.62334 -3.82312,-3.82388 -0.28599,-1.52446 0.0893,-2.82188 1.08887,-3.76462 1.60357,-1.51236 3.39928,-1.49992 5.56317,0.0385 1.01083,0.71867 1.55439,0.92162 2.46839,0.92162 0.92194,0 1.47959,-0.21176 2.61272,-0.99218 1.20552,-0.83028 1.66204,-0.99219 2.79749,-0.99219 1.00834,0 1.58544,0.16302 2.2467,0.63464 1.55002,1.10551 2.03942,3.17186 1.18011,4.98272 -0.46779,0.98578 -3.12953,3.13681 -4.22038,3.41059 -0.62119,0.15591 -0.62768,0.19394 -0.62768,3.6794 v 3.52187 l 0.99219,-0.26896 c 1.71618,-0.46522 4.10193,-1.88701 5.48612,-3.26946 0.73359,-0.73267 1.77368,-2.16922 2.31132,-3.19235 0.54218,-1.03177 1.39539,-3.40253 1.91582,-5.32336 1.06422,-3.92787 1.7795,-5.69663 4.2028,-10.3928 2.81918,-5.46334 4.59723,-10.91034 5.70025,-17.4625 0.73414,-4.36093 0.92292,-8.12549 0.57938,-11.55333 -0.35862,-3.57825 -1.06587,-6.45389 -2.18381,-8.8793 -0.63868,-1.38563 -0.93559,-1.77562 -1.25521,-1.64875 -0.23026,0.0914 -1.31162,0.41515 -2.40303,0.71945 -1.61405,0.45001 -2.7744,0.55689 -6.21771,0.5727 -3.66484,0.0168 -4.51456,-0.062 -6.32758,-0.58706 -1.87277,-0.54236 -4.64124,-1.76367 -6.18912,-2.73034 -0.48659,-0.30388 -0.69315,-0.27123 -1.56263,0.247 -1.65827,0.98838 -3.79842,1.89989 -5.89671,2.51147 -1.69209,0.49318 -2.6079,0.57551 -6.2177,0.55893 -3.44331,-0.0158 -4.60366,-0.12269 -6.21771,-0.5727 -1.09141,-0.3043 -2.17277,-0.62805 -2.40303,-0.71945 -0.31963,-0.12687 -0.61653,0.26312 -1.25521,1.64875 -2.90302,6.2982 -3.11289,15.45916 -0.58326,25.45971 1.19142,4.7101 2.21324,7.40663 4.76241,12.56771 2.6959,5.45817 3.17552,6.66363 4.10549,10.31875 1.2786,5.02535 3.51121,8.51181 6.61574,10.33119 1.0088,0.59119 3.46279,1.62366 4.03754,1.69872 0.0364,0.005 0.0661,-1.5706 0.0661,-3.50078 z m -11.63639,-32.40818 c -2.83222,-1.42296 -2.83222,-5.58768 0,-7.01064 0.50642,-0.25443 1.27795,-0.46261 1.71452,-0.46261 0.43656,0 1.20809,0.20818 1.71451,0.46261 2.83222,1.42296 2.83222,5.58768 0,7.01064 -0.50642,0.25443 -1.27795,0.46261 -1.71451,0.46261 -0.43657,0 -1.2081,-0.20818 -1.71452,-0.46261 z m 27.78125,0 c -1.32171,-0.66405 -2.12194,-1.98599 -2.12194,-3.50532 0,-0.85357 0.18871,-1.52715 0.60058,-2.14369 0.69252,-1.03663 2.08959,-1.82424 3.23587,-1.82424 1.14629,0 2.54336,0.78761 3.23588,1.82424 1.25866,1.88412 0.52109,4.62285 -1.52136,5.64901 -0.50642,0.25443 -1.27795,0.46261 -1.71452,0.46261 -0.43656,0 -1.20809,-0.20818 -1.71451,-0.46261 z M -90.5269,551.98775 c 0.31567,-1.3039 0.99711,-3.3495 1.51432,-4.54579 0.5172,-1.19629 0.87368,-2.24136 0.79217,-2.32237 -0.0815,-0.081 -1.83451,-0.14108 -3.89556,-0.13347 -3.44587,0.0127 -3.90703,0.0738 -5.73175,0.75956 -2.30677,0.86689 -5.52448,2.67243 -5.73355,3.21724 -0.33225,0.86584 0.1894,1.59494 1.82069,2.54471 3.07279,1.78903 6.35162,2.79823 9.20453,2.83306 l 1.45521,0.0178 z m 71.12814,1.47455 c 2.04884,-0.65074 5.60762,-2.51644 6.01158,-3.15159 0.10891,-0.17124 0.19985,-0.58226 0.20208,-0.91338 0.003,-0.45222 -0.40747,-0.86291 -1.6496,-1.65035 -0.9095,-0.57657 -2.66568,-1.43069 -3.9026,-1.89804 -2.13586,-0.80699 -2.43742,-0.85041 -5.99633,-0.86319 -2.06105,-0.007 -3.81405,0.0528 -3.89556,0.13384 -0.0815,0.081 0.27827,1.13372 0.79951,2.33934 0.52124,1.20563 1.20268,3.26783 1.51431,4.58267 l 0.56661,2.39062 2.11667,-0.14882 c 1.16416,-0.0818 3.06916,-0.45135 4.23333,-0.8211 z"
           id="path1080" /></g></g></g><metadata
     id="metadata1"><rdf:RDF><cc:Work
         rdf:about="" /></rdf:RDF></metadata></svg>
